<svg xmlns="http://www.w3.org/2000/svg" viewBox="0 0 950 706" width="950" height="706"><g transform="translate(82.00 1.00)"><path d="M 138,356 C 156,356 166,50 184,50" fill="none" stroke="var(--color-primary-700)" stroke-width="1.5"/><path d="M 376,50 C 399,50 411,50 434,50" fill="none" stroke="var(--color-primary-700)" stroke-width="1.5"/><path d="M 138,356 C 153,356 161,112 176,112" fill="none" stroke="var(--color-primary-700)" stroke-width="1.5"/><path d="M 384,112 C 402,112 412,112 430,112" fill="none" stroke="var(--color-primary-700)" stroke-width="1.5"/><path d="M 610,112 C 636,112 650,112 676,112" fill="none" stroke="var(--color-primary-700)" stroke-width="1.5"/><path d="M 138,356 C 153,356 161,206 176,206" fill="none" stroke="var(--color-primary-700)" stroke-width="1.5"/><path d="M 384,206 C 410,206 423,174 449,174" fill="none" stroke="var(--color-primary-700)" stroke-width="1.5"/><path d="M 384,206 C 405,206 416,238 437,238" fill="none" stroke="var(--color-primary-700)" stroke-width="1.5"/><path d="M 138,356 C 158,356 168,334 188,334" fill="none" stroke="var(--color-primary-700)" stroke-width="1.5"/><path d="M 372,334 C 398,334 411,302 437,302" fill="none" stroke="var(--color-primary-700)" stroke-width="1.5"/><path d="M 372,334 C 397,334 409,366 434,366" fill="none" stroke="var(--color-primary-700)" stroke-width="1.5"/><path d="M 138,356 C 161,356 173,462 196,462" fill="none" stroke="var(--color-primary-700)" stroke-width="1.5"/><path d="M 364,462 C 388,462 399,430 423,430" fill="none" stroke="var(--color-primary-700)" stroke-width="1.5"/><path d="M 364,462 C 390,462 404,494 430,494" fill="none" stroke="var(--color-primary-700)" stroke-width="1.5"/><path d="M 138,356 C 171,356 187,558 220,558" fill="none" stroke="var(--color-primary-700)" stroke-width="1.5"/><path d="M 340,558 C 376,558 394,558 430,558" fill="none" stroke="var(--color-primary-700)" stroke-width="1.5"/><path d="M 138,356 C 160,356 170,614 192,614" fill="none" stroke="var(--color-primary-700)" stroke-width="1.5"/><path d="M 368,614 C 390,614 401,614 423,614" fill="none" stroke="var(--color-primary-700)" stroke-width="1.5"/><path d="M 138,356 C 164,356 178,663 204,663" fill="none" stroke="var(--color-primary-700)" stroke-width="1.5"/><g data-node-id="n1" data-node-depth="0"><rect x="-58" y="328" width="196" height="56" rx="6" ry="6" fill="var(--color-primary-500)" stroke="var(--color-primary-400)" stroke-width="1.5"/><text font-family="'JetBrains Mono', ui-monospace, monospace" fill="var(--color-gray-50)" text-anchor="start" font-size="14" font-weight="700"><tspan x="-42" y="353">Amor fati: Love the</tspan><tspan x="-42" y="371">Fate</tspan></text></g><g data-node-id="n2" data-node-depth="1"><rect x="184" y="23" width="192" height="54" rx="6" ry="6" fill="var(--color-primary-800)" stroke="var(--color-primary-700)" stroke-width="1.5"/><text font-family="'JetBrains Mono', ui-monospace, monospace" fill="var(--color-gray-50)" text-anchor="start" font-size="13" font-weight="600"><tspan x="200" y="47">Introduction to amor</tspan><tspan x="200" y="64">fati</tspan></text></g><g data-node-id="n3" data-node-depth="2"><rect x="434" y="24" width="173" height="52" rx="6" ry="6" fill="var(--color-gray-800)" stroke="var(--color-gray-700)" stroke-width="1.5"/><text font-family="'JetBrains Mono', ui-monospace, monospace" fill="var(--color-gray-50)" text-anchor="start" font-size="12" font-weight="400"><tspan x="450" y="47">Embrace everything,</tspan><tspan x="450" y="63">even loss</tspan></text></g><g data-node-id="n4" data-node-depth="1"><rect x="176" y="94" width="208" height="37" rx="6" ry="6" fill="var(--color-primary-800)" stroke="var(--color-primary-700)" stroke-width="1.5"/><text font-family="'JetBrains Mono', ui-monospace, monospace" fill="var(--color-gray-50)" text-anchor="start" font-size="13" font-weight="600"><tspan x="192" y="117">What it actually means</tspan></text></g><g data-node-id="n5" data-node-depth="2"><rect x="430" y="94" width="180" height="36" rx="6" ry="6" fill="var(--color-gray-800)" stroke="var(--color-gray-700)" stroke-width="1.5"/><text font-family="'JetBrains Mono', ui-monospace, monospace" fill="var(--color-gray-50)" text-anchor="start" font-size="12" font-weight="400"><tspan x="446" y="117">Response defines you</tspan></text></g><g data-node-id="n6" data-node-depth="3"><rect x="676" y="88" width="168" height="48" rx="6" ry="6" fill="var(--color-gray-800)" fill-opacity="0.7" stroke="var(--color-gray-700)" stroke-width="1.5"/><text font-family="'JetBrains Mono', ui-monospace, monospace" fill="var(--color-gray-50)" text-anchor="start" font-size="11" font-weight="400"><tspan x="692" y="109">One bad moment ≠ the</tspan><tspan x="692" y="123">stream</tspan></text></g><g data-node-id="n7" data-node-depth="1"><rect x="176" y="179" width="208" height="54" rx="6" ry="6" fill="var(--color-primary-800)" stroke="var(--color-primary-700)" stroke-width="1.5"/><text font-family="'JetBrains Mono', ui-monospace, monospace" fill="var(--color-gray-50)" text-anchor="start" font-size="13" font-weight="600"><tspan x="192" y="203">The problem with being</tspan><tspan x="192" y="220">low</tspan></text></g><g data-node-id="n8" data-node-depth="2"><rect x="449" y="148" width="143" height="52" rx="6" ry="6" fill="var(--color-gray-800)" stroke="var(--color-gray-700)" stroke-width="1.5"/><text font-family="'JetBrains Mono', ui-monospace, monospace" fill="var(--color-gray-50)" text-anchor="start" font-size="12" font-weight="400"><tspan x="465" y="171">Society rejects</tspan><tspan x="465" y="187">sadness</tspan></text></g><g data-node-id="n9" data-node-depth="2"><rect x="437" y="212" width="166" height="52" rx="6" ry="6" fill="var(--color-gray-800)" stroke="var(--color-gray-700)" stroke-width="1.5"/><text font-family="'JetBrains Mono', ui-monospace, monospace" fill="var(--color-gray-50)" text-anchor="start" font-size="12" font-weight="400"><tspan x="453" y="235">Negative criticism</tspan><tspan x="453" y="251">lands hard</tspan></text></g><g data-node-id="n10" data-node-depth="1"><rect x="188" y="316" width="184" height="37" rx="6" ry="6" fill="var(--color-primary-800)" stroke="var(--color-primary-700)" stroke-width="1.5"/><text font-family="'JetBrains Mono', ui-monospace, monospace" fill="var(--color-gray-50)" text-anchor="start" font-size="13" font-weight="600"><tspan x="204" y="339">Filtering the noise</tspan></text></g><g data-node-id="n11" data-node-depth="2"><rect x="437" y="276" width="166" height="52" rx="6" ry="6" fill="var(--color-gray-800)" stroke="var(--color-gray-700)" stroke-width="1.5"/><text font-family="'JetBrains Mono', ui-monospace, monospace" fill="var(--color-gray-50)" text-anchor="start" font-size="12" font-weight="400"><tspan x="453" y="299">Strava as a better</tspan><tspan x="453" y="315">model</tspan></text></g><g data-node-id="n12" data-node-depth="2"><rect x="434" y="340" width="173" height="52" rx="6" ry="6" fill="var(--color-gray-800)" stroke="var(--color-gray-700)" stroke-width="1.5"/><text font-family="'JetBrains Mono', ui-monospace, monospace" fill="var(--color-gray-50)" text-anchor="start" font-size="12" font-weight="400"><tspan x="450" y="363">Deliberate mute and</tspan><tspan x="450" y="379">unfollow</tspan></text></g><g data-node-id="n13" data-node-depth="1"><rect x="196" y="444" width="168" height="37" rx="6" ry="6" fill="var(--color-primary-800)" stroke="var(--color-primary-700)" stroke-width="1.5"/><text font-family="'JetBrains Mono', ui-monospace, monospace" fill="var(--color-gray-50)" text-anchor="start" font-size="13" font-weight="600"><tspan x="212" y="467">Protecting energy</tspan></text></g><g data-node-id="n14" data-node-depth="2"><rect x="423" y="404" width="195" height="52" rx="6" ry="6" fill="var(--color-gray-800)" stroke="var(--color-gray-700)" stroke-width="1.5"/><text font-family="'JetBrains Mono', ui-monospace, monospace" fill="var(--color-gray-50)" text-anchor="start" font-size="12" font-weight="400"><tspan x="439" y="427">Cut ties with draining</tspan><tspan x="439" y="443">people</tspan></text></g><g data-node-id="n15" data-node-depth="2"><rect x="430" y="468" width="180" height="52" rx="6" ry="6" fill="var(--color-gray-800)" stroke="var(--color-gray-700)" stroke-width="1.5"/><text font-family="'JetBrains Mono', ui-monospace, monospace" fill="var(--color-gray-50)" text-anchor="start" font-size="12" font-weight="400"><tspan x="446" y="491">Seek people who give</tspan><tspan x="446" y="507">energy</tspan></text></g><g data-node-id="n16" data-node-depth="1"><rect x="220" y="540" width="120" height="37" rx="6" ry="6" fill="var(--color-primary-800)" stroke="var(--color-primary-700)" stroke-width="1.5"/><text font-family="'JetBrains Mono', ui-monospace, monospace" fill="var(--color-gray-50)" text-anchor="start" font-size="13" font-weight="600"><tspan x="236" y="563">Lighthouses</tspan></text></g><g data-node-id="n17" data-node-depth="2"><rect x="430" y="532" width="180" height="52" rx="6" ry="6" fill="var(--color-gray-800)" stroke="var(--color-gray-700)" stroke-width="1.5"/><text font-family="'JetBrains Mono', ui-monospace, monospace" fill="var(--color-gray-50)" text-anchor="start" font-size="12" font-weight="400"><tspan x="446" y="555">Few fixed,</tspan><tspan x="446" y="571">unconditional people</tspan></text></g><g data-node-id="n18" data-node-depth="1"><rect x="192" y="587" width="176" height="54" rx="6" ry="6" fill="var(--color-primary-800)" stroke="var(--color-primary-700)" stroke-width="1.5"/><text font-family="'JetBrains Mono', ui-monospace, monospace" fill="var(--color-gray-50)" text-anchor="start" font-size="13" font-weight="600"><tspan x="208" y="611">Do not lowball the</tspan><tspan x="208" y="628">pain</tspan></text></g><g data-node-id="n19" data-node-depth="2"><rect x="423" y="596" width="195" height="36" rx="6" ry="6" fill="var(--color-gray-800)" stroke="var(--color-gray-700)" stroke-width="1.5"/><text font-family="'JetBrains Mono', ui-monospace, monospace" fill="var(--color-gray-50)" text-anchor="start" font-size="12" font-weight="400"><tspan x="439" y="619">Find the tiniest spark</tspan></text></g><g data-node-id="n20" data-node-depth="1"><rect x="204" y="644" width="152" height="37" rx="6" ry="6" fill="var(--color-primary-800)" stroke="var(--color-primary-700)" stroke-width="1.5"/><text font-family="'JetBrains Mono', ui-monospace, monospace" fill="var(--color-gray-50)" text-anchor="start" font-size="13" font-weight="600"><tspan x="220" y="668">Writing it down</tspan></text></g></g></svg>