<svg xmlns="http://www.w3.org/2000/svg" viewBox="0 0 960 710" width="960" height="710"><g transform="translate(95.00 0.50)"><path d="M 151,354 C 169,354 178,42 196,42" fill="none" stroke="var(--color-primary-700)" stroke-width="1.5"/><path d="M 364,42 C 393,42 408,42 437,42" fill="none" stroke="var(--color-primary-700)" stroke-width="1.5"/><path d="M 151,354 C 161,354 166,98 176,98" fill="none" stroke="var(--color-primary-700)" stroke-width="1.5"/><path d="M 384,98 C 402,98 412,98 430,98" fill="none" stroke="var(--color-primary-700)" stroke-width="1.5"/><path d="M 151,354 C 167,354 176,178 192,178" fill="none" stroke="var(--color-primary-700)" stroke-width="1.5"/><path d="M 368,178 C 390,178 401,154 423,154" fill="none" stroke="var(--color-primary-700)" stroke-width="1.5"/><path d="M 368,178 C 390,178 401,202 423,202" fill="none" stroke="var(--color-primary-700)" stroke-width="1.5"/><path d="M 151,354 C 164,354 171,277 184,277" fill="none" stroke="var(--color-primary-700)" stroke-width="1.5"/><path d="M 376,277 C 398,277 408,249 430,249" fill="none" stroke="var(--color-primary-700)" stroke-width="1.5"/><path d="M 610,249 C 638,249 651,249 679,249" fill="none" stroke="var(--color-primary-700)" stroke-width="1.5"/><path d="M 376,277 C 402,277 415,304 441,304" fill="none" stroke="var(--color-primary-700)" stroke-width="1.5"/><path d="M 151,354 C 171,354 180,396 200,396" fill="none" stroke="var(--color-primary-700)" stroke-width="1.5"/><path d="M 360,396 C 392,396 409,368 441,368" fill="none" stroke="var(--color-primary-700)" stroke-width="1.5"/><path d="M 360,396 C 386,396 400,424 426,424" fill="none" stroke="var(--color-primary-700)" stroke-width="1.5"/><path d="M 151,354 C 167,354 176,512 192,512" fill="none" stroke="var(--color-primary-700)" stroke-width="1.5"/><path d="M 368,512 C 400,512 417,480 449,480" fill="none" stroke="var(--color-primary-700)" stroke-width="1.5"/><path d="M 368,512 C 396,512 409,544 437,544" fill="none" stroke="var(--color-primary-700)" stroke-width="1.5"/><path d="M 151,354 C 163,354 168,609 180,609" fill="none" stroke="var(--color-primary-700)" stroke-width="1.5"/><path d="M 151,354 C 180,354 195,667 224,667" fill="none" stroke="var(--color-primary-700)" stroke-width="1.5"/><g data-node-id="n1" data-node-depth="0"><rect x="-71" y="326" width="222" height="56" rx="6" ry="6" fill="var(--color-primary-500)" stroke="var(--color-primary-400)" stroke-width="1.5"/><text font-family="'JetBrains Mono', ui-monospace, monospace" fill="var(--color-gray-50)" text-anchor="start" font-size="14" font-weight="700"><tspan x="-55" y="351">From Work Grind to Gym</tspan><tspan x="-55" y="369">Gains</tspan></text></g><g data-node-id="n2" data-node-depth="1"><rect x="196" y="24" width="168" height="37" rx="6" ry="6" fill="var(--color-primary-800)" stroke="var(--color-primary-700)" stroke-width="1.5"/><text font-family="'JetBrains Mono', ui-monospace, monospace" fill="var(--color-gray-50)" text-anchor="start" font-size="13" font-weight="600"><tspan x="212" y="47">Body on autopilot</tspan></text></g><g data-node-id="n3" data-node-depth="2"><rect x="437" y="24" width="166" height="36" rx="6" ry="6" fill="var(--color-gray-800)" stroke="var(--color-gray-700)" stroke-width="1.5"/><text font-family="'JetBrains Mono', ui-monospace, monospace" fill="var(--color-gray-50)" text-anchor="start" font-size="12" font-weight="400"><tspan x="453" y="47">Career over health</tspan></text></g><g data-node-id="n4" data-node-depth="1"><rect x="176" y="71" width="208" height="54" rx="6" ry="6" fill="var(--color-primary-800)" stroke="var(--color-primary-700)" stroke-width="1.5"/><text font-family="'JetBrains Mono', ui-monospace, monospace" fill="var(--color-gray-50)" text-anchor="start" font-size="13" font-weight="600"><tspan x="192" y="95">The photo that changed</tspan><tspan x="192" y="112">all</tspan></text></g><g data-node-id="n5" data-node-depth="2"><rect x="430" y="72" width="180" height="52" rx="6" ry="6" fill="var(--color-gray-800)" stroke="var(--color-gray-700)" stroke-width="1.5"/><text font-family="'JetBrains Mono', ui-monospace, monospace" fill="var(--color-gray-50)" text-anchor="start" font-size="12" font-weight="400"><tspan x="446" y="95">Gap between feel and</tspan><tspan x="446" y="111">look</tspan></text></g><g data-node-id="n6" data-node-depth="1"><rect x="192" y="160" width="176" height="37" rx="6" ry="6" fill="var(--color-primary-800)" stroke="var(--color-primary-700)" stroke-width="1.5"/><text font-family="'JetBrains Mono', ui-monospace, monospace" fill="var(--color-gray-50)" text-anchor="start" font-size="13" font-weight="600"><tspan x="208" y="183">Starting from zero</tspan></text></g><g data-node-id="n7" data-node-depth="2"><rect x="423" y="136" width="195" height="36" rx="6" ry="6" fill="var(--color-gray-800)" stroke="var(--color-gray-700)" stroke-width="1.5"/><text font-family="'JetBrains Mono', ui-monospace, monospace" fill="var(--color-gray-50)" text-anchor="start" font-size="12" font-weight="400"><tspan x="439" y="159">Nutrition plan &amp; coach</tspan></text></g><g data-node-id="n8" data-node-depth="2"><rect x="423" y="184" width="195" height="36" rx="6" ry="6" fill="var(--color-gray-800)" stroke="var(--color-gray-700)" stroke-width="1.5"/><text font-family="'JetBrains Mono', ui-monospace, monospace" fill="var(--color-gray-50)" text-anchor="start" font-size="12" font-weight="400"><tspan x="439" y="207">Mindset over logistics</tspan></text></g><g data-node-id="n9" data-node-depth="1"><rect x="184" y="250" width="192" height="54" rx="6" ry="6" fill="var(--color-primary-800)" stroke="var(--color-primary-700)" stroke-width="1.5"/><text font-family="'JetBrains Mono', ui-monospace, monospace" fill="var(--color-gray-50)" text-anchor="start" font-size="13" font-weight="600"><tspan x="200" y="273">The system that made</tspan><tspan x="200" y="290">it work</tspan></text></g><g data-node-id="n10" data-node-depth="2"><rect x="430" y="231" width="180" height="36" rx="6" ry="6" fill="var(--color-gray-800)" stroke="var(--color-gray-700)" stroke-width="1.5"/><text font-family="'JetBrains Mono', ui-monospace, monospace" fill="var(--color-gray-50)" text-anchor="start" font-size="12" font-weight="400"><tspan x="446" y="254">Wife as full partner</tspan></text></g><g data-node-id="n11" data-node-depth="3"><rect x="679" y="232" width="162" height="34" rx="6" ry="6" fill="var(--color-gray-800)" fill-opacity="0.7" stroke="var(--color-gray-700)" stroke-width="1.5"/><text font-family="'JetBrains Mono', ui-monospace, monospace" fill="var(--color-gray-50)" text-anchor="start" font-size="11" font-weight="400"><tspan x="695" y="253">Split week schedule</tspan></text></g><g data-node-id="n12" data-node-depth="2"><rect x="441" y="278" width="158" height="52" rx="6" ry="6" fill="var(--color-gray-800)" stroke="var(--color-gray-700)" stroke-width="1.5"/><text font-family="'JetBrains Mono', ui-monospace, monospace" fill="var(--color-gray-50)" text-anchor="start" font-size="12" font-weight="400"><tspan x="457" y="301">Gym with personal</tspan><tspan x="457" y="317">trainers</tspan></text></g><g data-node-id="n13" data-node-depth="1"><rect x="200" y="378" width="160" height="37" rx="6" ry="6" fill="var(--color-primary-800)" stroke="var(--color-primary-700)" stroke-width="1.5"/><text font-family="'JetBrains Mono', ui-monospace, monospace" fill="var(--color-gray-50)" text-anchor="start" font-size="13" font-weight="600"><tspan x="216" y="401">The first sparks</tspan></text></g><g data-node-id="n14" data-node-depth="2"><rect x="441" y="342" width="158" height="52" rx="6" ry="6" fill="var(--color-gray-800)" stroke="var(--color-gray-700)" stroke-width="1.5"/><text font-family="'JetBrains Mono', ui-monospace, monospace" fill="var(--color-gray-50)" text-anchor="start" font-size="12" font-weight="400"><tspan x="457" y="365">96kg to 75kg in 8</tspan><tspan x="457" y="381">months</tspan></text></g><g data-node-id="n15" data-node-depth="2"><rect x="426" y="406" width="188" height="36" rx="6" ry="6" fill="var(--color-gray-800)" stroke="var(--color-gray-700)" stroke-width="1.5"/><text font-family="'JetBrains Mono', ui-monospace, monospace" fill="var(--color-gray-50)" text-anchor="start" font-size="12" font-weight="400"><tspan x="442" y="429">Headaches disappeared</tspan></text></g><g data-node-id="n16" data-node-depth="1"><rect x="192" y="494" width="176" height="37" rx="6" ry="6" fill="var(--color-primary-800)" stroke="var(--color-primary-700)" stroke-width="1.5"/><text font-family="'JetBrains Mono', ui-monospace, monospace" fill="var(--color-gray-50)" text-anchor="start" font-size="13" font-weight="600"><tspan x="208" y="517">More than exercise</tspan></text></g><g data-node-id="n17" data-node-depth="2"><rect x="449" y="454" width="143" height="52" rx="6" ry="6" fill="var(--color-gray-800)" stroke="var(--color-gray-700)" stroke-width="1.5"/><text font-family="'JetBrains Mono', ui-monospace, monospace" fill="var(--color-gray-50)" text-anchor="start" font-size="12" font-weight="400"><tspan x="465" y="477">Discipline over</tspan><tspan x="465" y="493">motivation</tspan></text></g><g data-node-id="n18" data-node-depth="2"><rect x="437" y="518" width="166" height="52" rx="6" ry="6" fill="var(--color-gray-800)" stroke="var(--color-gray-700)" stroke-width="1.5"/><text font-family="'JetBrains Mono', ui-monospace, monospace" fill="var(--color-gray-50)" text-anchor="start" font-size="12" font-weight="400"><tspan x="453" y="541">Supportive fitness</tspan><tspan x="453" y="557">community</tspan></text></g><g data-node-id="n19" data-node-depth="1"><rect x="180" y="582" width="200" height="54" rx="6" ry="6" fill="var(--color-primary-800)" stroke="var(--color-primary-700)" stroke-width="1.5"/><text font-family="'JetBrains Mono', ui-monospace, monospace" fill="var(--color-gray-50)" text-anchor="start" font-size="13" font-weight="600"><tspan x="196" y="606">Better person, better</tspan><tspan x="196" y="623">pro</tspan></text></g><g data-node-id="n20" data-node-depth="1"><rect x="224" y="648" width="112" height="37" rx="6" ry="6" fill="var(--color-primary-800)" stroke="var(--color-primary-700)" stroke-width="1.5"/><text font-family="'JetBrains Mono', ui-monospace, monospace" fill="var(--color-gray-50)" text-anchor="start" font-size="13" font-weight="600"><tspan x="240" y="672">Just start</tspan></text></g></g></svg>