<svg xmlns="http://www.w3.org/2000/svg" viewBox="0 0 923 502" width="923" height="502"><g transform="translate(47.50 0.00)"><path d="M 104,236 C 154,236 180,50 230,50" fill="none" stroke="var(--color-primary-700)" stroke-width="1.5"/><path d="M 330,50 C 373,50 394,50 437,50" fill="none" stroke="var(--color-primary-700)" stroke-width="1.5"/><path d="M 104,236 C 154,236 180,142 230,142" fill="none" stroke="var(--color-primary-700)" stroke-width="1.5"/><path d="M 330,142 C 378,142 401,112 449,112" fill="none" stroke="var(--color-primary-700)" stroke-width="1.5"/><path d="M 592,112 C 627,112 644,112 679,112" fill="none" stroke="var(--color-primary-700)" stroke-width="1.5"/><path d="M 330,142 C 374,142 397,172 441,172" fill="none" stroke="var(--color-primary-700)" stroke-width="1.5"/><path d="M 599,172 C 633,172 649,172 683,172" fill="none" stroke="var(--color-primary-700)" stroke-width="1.5"/><path d="M 104,236 C 141,236 159,253 196,253" fill="none" stroke="var(--color-primary-700)" stroke-width="1.5"/><path d="M 364,253 C 392,253 406,225 434,225" fill="none" stroke="var(--color-primary-700)" stroke-width="1.5"/><path d="M 607,225 C 632,225 644,225 669,225" fill="none" stroke="var(--color-primary-700)" stroke-width="1.5"/><path d="M 364,253 C 390,253 404,280 430,280" fill="none" stroke="var(--color-primary-700)" stroke-width="1.5"/><path d="M 104,236 C 134,236 150,335 180,335" fill="none" stroke="var(--color-primary-700)" stroke-width="1.5"/><path d="M 380,335 C 402,335 412,335 434,335" fill="none" stroke="var(--color-primary-700)" stroke-width="1.5"/><path d="M 607,335 C 640,335 657,335 690,335" fill="none" stroke="var(--color-primary-700)" stroke-width="1.5"/><path d="M 104,236 C 154,236 180,421 230,421" fill="none" stroke="var(--color-primary-700)" stroke-width="1.5"/><path d="M 330,421 C 374,421 397,390 441,390" fill="none" stroke="var(--color-primary-700)" stroke-width="1.5"/><path d="M 330,421 C 374,421 397,452 441,452" fill="none" stroke="var(--color-primary-700)" stroke-width="1.5"/><path d="M 599,452 C 634,452 651,452 686,452" fill="none" stroke="var(--color-primary-700)" stroke-width="1.5"/><g data-node-id="n1" data-node-depth="0"><rect x="-23" y="217" width="127" height="38" rx="6" ry="6" fill="var(--color-primary-500)" stroke="var(--color-primary-400)" stroke-width="1.5"/><text font-family="'JetBrains Mono', ui-monospace, monospace" fill="var(--color-gray-50)" text-anchor="start" font-size="14" font-weight="700"><tspan x="-7" y="241">Hello world</tspan></text></g><g data-node-id="n2" data-node-depth="1"><rect x="230" y="32" width="100" height="37" rx="6" ry="6" fill="var(--color-primary-800)" stroke="var(--color-primary-700)" stroke-width="1.5"/><text font-family="'JetBrains Mono', ui-monospace, monospace" fill="var(--color-gray-50)" text-anchor="start" font-size="13" font-weight="600"><tspan x="246" y="55">Intro</tspan></text></g><g data-node-id="n3" data-node-depth="2"><rect x="437" y="24" width="166" height="52" rx="6" ry="6" fill="var(--color-gray-800)" stroke="var(--color-gray-700)" stroke-width="1.5"/><text font-family="'JetBrains Mono', ui-monospace, monospace" fill="var(--color-gray-50)" text-anchor="start" font-size="12" font-weight="400"><tspan x="453" y="47">Every blog needs a</tspan><tspan x="453" y="63">first post</tspan></text></g><g data-node-id="n4" data-node-depth="1"><rect x="230" y="124" width="100" height="37" rx="6" ry="6" fill="var(--color-primary-800)" stroke="var(--color-primary-700)" stroke-width="1.5"/><text font-family="'JetBrains Mono', ui-monospace, monospace" fill="var(--color-gray-50)" text-anchor="start" font-size="13" font-weight="600"><tspan x="246" y="147">Who I am</tspan></text></g><g data-node-id="n5" data-node-depth="2"><rect x="449" y="94" width="143" height="36" rx="6" ry="6" fill="var(--color-gray-800)" stroke="var(--color-gray-700)" stroke-width="1.5"/><text font-family="'JetBrains Mono', ui-monospace, monospace" fill="var(--color-gray-50)" text-anchor="start" font-size="12" font-weight="400"><tspan x="465" y="117">CTO at Powerdot</tspan></text></g><g data-node-id="n6" data-node-depth="3"><rect x="679" y="88" width="162" height="48" rx="6" ry="6" fill="var(--color-gray-800)" fill-opacity="0.7" stroke="var(--color-gray-700)" stroke-width="1.5"/><text font-family="'JetBrains Mono', ui-monospace, monospace" fill="var(--color-gray-50)" text-anchor="start" font-size="11" font-weight="400"><tspan x="695" y="109">Building software &amp;</tspan><tspan x="695" y="123">leading teams</tspan></text></g><g data-node-id="n7" data-node-depth="2"><rect x="441" y="154" width="158" height="36" rx="6" ry="6" fill="var(--color-gray-800)" stroke="var(--color-gray-700)" stroke-width="1.5"/><text font-family="'JetBrains Mono', ui-monospace, monospace" fill="var(--color-gray-50)" text-anchor="start" font-size="12" font-weight="400"><tspan x="457" y="177">Outside interests</tspan></text></g><g data-node-id="n8" data-node-depth="3"><rect x="683" y="148" width="155" height="48" rx="6" ry="6" fill="var(--color-gray-800)" fill-opacity="0.7" stroke="var(--color-gray-700)" stroke-width="1.5"/><text font-family="'JetBrains Mono', ui-monospace, monospace" fill="var(--color-gray-50)" text-anchor="start" font-size="11" font-weight="400"><tspan x="699" y="169">Homelab, MTB, gym,</tspan><tspan x="699" y="183">reading</tspan></text></g><g data-node-id="n9" data-node-depth="1"><rect x="196" y="234" width="168" height="37" rx="6" ry="6" fill="var(--color-primary-800)" stroke="var(--color-primary-700)" stroke-width="1.5"/><text font-family="'JetBrains Mono', ui-monospace, monospace" fill="var(--color-gray-50)" text-anchor="start" font-size="13" font-weight="600"><tspan x="212" y="258">What this blog is</tspan></text></g><g data-node-id="n10" data-node-depth="2"><rect x="434" y="199" width="173" height="52" rx="6" ry="6" fill="var(--color-gray-800)" stroke="var(--color-gray-700)" stroke-width="1.5"/><text font-family="'JetBrains Mono', ui-monospace, monospace" fill="var(--color-gray-50)" text-anchor="start" font-size="12" font-weight="400"><tspan x="450" y="222">Personal publishing</tspan><tspan x="450" y="238">space</tspan></text></g><g data-node-id="n11" data-node-depth="3"><rect x="669" y="208" width="182" height="34" rx="6" ry="6" fill="var(--color-gray-800)" fill-opacity="0.7" stroke="var(--color-gray-700)" stroke-width="1.5"/><text font-family="'JetBrains Mono', ui-monospace, monospace" fill="var(--color-gray-50)" text-anchor="start" font-size="11" font-weight="400"><tspan x="685" y="229">MDX + git push, no CMS</tspan></text></g><g data-node-id="n12" data-node-depth="2"><rect x="430" y="254" width="180" height="52" rx="6" ry="6" fill="var(--color-gray-800)" stroke="var(--color-gray-700)" stroke-width="1.5"/><text font-family="'JetBrains Mono', ui-monospace, monospace" fill="var(--color-gray-50)" text-anchor="start" font-size="12" font-weight="400"><tspan x="446" y="277">Topics follow actual</tspan><tspan x="446" y="293">life</tspan></text></g><g data-node-id="n13" data-node-depth="1"><rect x="180" y="317" width="200" height="37" rx="6" ry="6" fill="var(--color-primary-800)" stroke="var(--color-primary-700)" stroke-width="1.5"/><text font-family="'JetBrains Mono', ui-monospace, monospace" fill="var(--color-gray-50)" text-anchor="start" font-size="13" font-weight="600"><tspan x="196" y="340">What this blog is not</tspan></text></g><g data-node-id="n14" data-node-depth="2"><rect x="434" y="317" width="173" height="36" rx="6" ry="6" fill="var(--color-gray-800)" stroke="var(--color-gray-700)" stroke-width="1.5"/><text font-family="'JetBrains Mono', ui-monospace, monospace" fill="var(--color-gray-50)" text-anchor="start" font-size="12" font-weight="400"><tspan x="450" y="340">Not corporate comms</tspan></text></g><g data-node-id="n15" data-node-depth="3"><rect x="690" y="318" width="141" height="34" rx="6" ry="6" fill="var(--color-gray-800)" fill-opacity="0.7" stroke="var(--color-gray-700)" stroke-width="1.5"/><text font-family="'JetBrains Mono', ui-monospace, monospace" fill="var(--color-gray-50)" text-anchor="start" font-size="11" font-weight="400"><tspan x="706" y="339">Views are my own</tspan></text></g><g data-node-id="n16" data-node-depth="1"><rect x="230" y="403" width="100" height="37" rx="6" ry="6" fill="var(--color-primary-800)" stroke="var(--color-primary-700)" stroke-width="1.5"/><text font-family="'JetBrains Mono', ui-monospace, monospace" fill="var(--color-gray-50)" text-anchor="start" font-size="13" font-weight="600"><tspan x="246" y="426">Why now</tspan></text></g><g data-node-id="n17" data-node-depth="2"><rect x="441" y="364" width="158" height="52" rx="6" ry="6" fill="var(--color-gray-800)" stroke="var(--color-gray-700)" stroke-width="1.5"/><text font-family="'JetBrains Mono', ui-monospace, monospace" fill="var(--color-gray-50)" text-anchor="start" font-size="12" font-weight="400"><tspan x="457" y="387">Drafts sitting in</tspan><tspan x="457" y="403">Markdown</tspan></text></g><g data-node-id="n18" data-node-depth="2"><rect x="441" y="426" width="158" height="52" rx="6" ry="6" fill="var(--color-gray-800)" stroke="var(--color-gray-700)" stroke-width="1.5"/><text font-family="'JetBrains Mono', ui-monospace, monospace" fill="var(--color-gray-50)" text-anchor="start" font-size="12" font-weight="400"><tspan x="457" y="449">Pipeline working,</tspan><tspan x="457" y="465">domain live</tspan></text></g><g data-node-id="n19" data-node-depth="3"><rect x="686" y="428" width="148" height="48" rx="6" ry="6" fill="var(--color-gray-800)" fill-opacity="0.7" stroke="var(--color-gray-700)" stroke-width="1.5"/><text font-family="'JetBrains Mono', ui-monospace, monospace" fill="var(--color-gray-50)" text-anchor="start" font-size="11" font-weight="400"><tspan x="702" y="449">No reason to keep</tspan><tspan x="702" y="463">waiting</tspan></text></g></g></svg>