<svg xmlns="http://www.w3.org/2000/svg" viewBox="0 0 958 718" width="958" height="718"><g transform="translate(86.00 2.00)"><path d="M 142,357 C 159,357 167,79 184,79" fill="none" stroke="var(--color-primary-700)" stroke-width="1.5"/><path d="M 376,79 C 402,79 415,48 441,48" fill="none" stroke="var(--color-primary-700)" stroke-width="1.5"/><path d="M 599,48 C 629,48 643,48 673,48" fill="none" stroke="var(--color-primary-700)" stroke-width="1.5"/><path d="M 376,79 C 395,79 404,110 423,110" fill="none" stroke="var(--color-primary-700)" stroke-width="1.5"/><path d="M 142,357 C 164,357 174,174 196,174" fill="none" stroke="var(--color-primary-700)" stroke-width="1.5"/><path d="M 364,174 C 393,174 408,174 437,174" fill="none" stroke="var(--color-primary-700)" stroke-width="1.5"/><path d="M 142,357 C 168,357 182,266 208,266" fill="none" stroke="var(--color-primary-700)" stroke-width="1.5"/><path d="M 352,266 C 391,266 410,238 449,238" fill="none" stroke="var(--color-primary-700)" stroke-width="1.5"/><path d="M 352,266 C 380,266 395,294 423,294" fill="none" stroke="var(--color-primary-700)" stroke-width="1.5"/><path d="M 142,357 C 167,357 179,381 204,381" fill="none" stroke="var(--color-primary-700)" stroke-width="1.5"/><path d="M 356,381 C 386,381 400,350 430,350" fill="none" stroke="var(--color-primary-700)" stroke-width="1.5"/><path d="M 356,381 C 384,381 398,412 426,412" fill="none" stroke="var(--color-primary-700)" stroke-width="1.5"/><path d="M 614,412 C 643,412 657,412 686,412" fill="none" stroke="var(--color-primary-700)" stroke-width="1.5"/><path d="M 142,357 C 165,357 177,506 200,506" fill="none" stroke="var(--color-primary-700)" stroke-width="1.5"/><path d="M 360,506 C 385,506 398,474 423,474" fill="none" stroke="var(--color-primary-700)" stroke-width="1.5"/><path d="M 360,506 C 398,506 418,538 456,538" fill="none" stroke="var(--color-primary-700)" stroke-width="1.5"/><path d="M 142,357 C 162,357 172,634 192,634" fill="none" stroke="var(--color-primary-700)" stroke-width="1.5"/><path d="M 368,634 C 391,634 403,602 426,602" fill="none" stroke="var(--color-primary-700)" stroke-width="1.5"/><path d="M 368,634 C 393,634 405,666 430,666" fill="none" stroke="var(--color-primary-700)" stroke-width="1.5"/><g data-node-id="n1" data-node-depth="0"><rect x="-62" y="329" width="204" height="56" rx="6" ry="6" fill="var(--color-primary-500)" stroke="var(--color-primary-400)" stroke-width="1.5"/><text font-family="'JetBrains Mono', ui-monospace, monospace" fill="var(--color-gray-50)" text-anchor="start" font-size="14" font-weight="700"><tspan x="-46" y="353">Vibe Coding: Tech to</tspan><tspan x="-46" y="371">Cog Debt</tspan></text></g><g data-node-id="n2" data-node-depth="1"><rect x="184" y="61" width="192" height="37" rx="6" ry="6" fill="var(--color-primary-800)" stroke="var(--color-primary-700)" stroke-width="1.5"/><text font-family="'JetBrains Mono', ui-monospace, monospace" fill="var(--color-gray-50)" text-anchor="start" font-size="13" font-weight="600"><tspan x="200" y="84">The debt we all knew</tspan></text></g><g data-node-id="n3" data-node-depth="2"><rect x="441" y="22" width="158" height="52" rx="6" ry="6" fill="var(--color-gray-800)" stroke="var(--color-gray-700)" stroke-width="1.5"/><text font-family="'JetBrains Mono', ui-monospace, monospace" fill="var(--color-gray-50)" text-anchor="start" font-size="12" font-weight="400"><tspan x="457" y="45">Shortcuts to ship</tspan><tspan x="457" y="61">faster</tspan></text></g><g data-node-id="n4" data-node-depth="3"><rect x="673" y="24" width="175" height="48" rx="6" ry="6" fill="var(--color-gray-800)" fill-opacity="0.7" stroke="var(--color-gray-700)" stroke-width="1.5"/><text font-family="'JetBrains Mono', ui-monospace, monospace" fill="var(--color-gray-50)" text-anchor="start" font-size="11" font-weight="400"><tspan x="689" y="45">Security, storage, QA</tspan><tspan x="689" y="59">skipped</tspan></text></g><g data-node-id="n5" data-node-depth="2"><rect x="423" y="84" width="195" height="52" rx="6" ry="6" fill="var(--color-gray-800)" stroke="var(--color-gray-700)" stroke-width="1.5"/><text font-family="'JetBrains Mono', ui-monospace, monospace" fill="var(--color-gray-50)" text-anchor="start" font-size="12" font-weight="400"><tspan x="439" y="107">Visible and measurable</tspan><tspan x="439" y="123">debt</tspan></text></g><g data-node-id="n6" data-node-depth="1"><rect x="196" y="147" width="168" height="54" rx="6" ry="6" fill="var(--color-primary-800)" stroke="var(--color-primary-700)" stroke-width="1.5"/><text font-family="'JetBrains Mono', ui-monospace, monospace" fill="var(--color-gray-50)" text-anchor="start" font-size="13" font-weight="600"><tspan x="212" y="171">AI solved the old</tspan><tspan x="212" y="188">problem</tspan></text></g><g data-node-id="n7" data-node-depth="2"><rect x="437" y="148" width="166" height="52" rx="6" ry="6" fill="var(--color-gray-800)" stroke="var(--color-gray-700)" stroke-width="1.5"/><text font-family="'JetBrains Mono', ui-monospace, monospace" fill="var(--color-gray-50)" text-anchor="start" font-size="12" font-weight="400"><tspan x="453" y="171">AI handles generic</tspan><tspan x="453" y="187">layers</tspan></text></g><g data-node-id="n8" data-node-depth="1"><rect x="208" y="248" width="144" height="37" rx="6" ry="6" fill="var(--color-primary-800)" stroke="var(--color-primary-700)" stroke-width="1.5"/><text font-family="'JetBrains Mono', ui-monospace, monospace" fill="var(--color-gray-50)" text-anchor="start" font-size="13" font-weight="600"><tspan x="224" y="271">The debt moved</tspan></text></g><g data-node-id="n9" data-node-depth="2"><rect x="449" y="212" width="143" height="52" rx="6" ry="6" fill="var(--color-gray-800)" stroke="var(--color-gray-700)" stroke-width="1.5"/><text font-family="'JetBrains Mono', ui-monospace, monospace" fill="var(--color-gray-50)" text-anchor="start" font-size="12" font-weight="400"><tspan x="465" y="235">Debt shifted to</tspan><tspan x="465" y="251">product logic</tspan></text></g><g data-node-id="n10" data-node-depth="2"><rect x="423" y="276" width="195" height="36" rx="6" ry="6" fill="var(--color-gray-800)" stroke="var(--color-gray-700)" stroke-width="1.5"/><text font-family="'JetBrains Mono', ui-monospace, monospace" fill="var(--color-gray-50)" text-anchor="start" font-size="12" font-weight="400"><tspan x="439" y="299">Cognitive debt is born</tspan></text></g><g data-node-id="n11" data-node-depth="1"><rect x="204" y="363" width="152" height="37" rx="6" ry="6" fill="var(--color-primary-800)" stroke="var(--color-primary-700)" stroke-width="1.5"/><text font-family="'JetBrains Mono', ui-monospace, monospace" fill="var(--color-gray-50)" text-anchor="start" font-size="13" font-weight="600"><tspan x="220" y="386">Where I felt it</tspan></text></g><g data-node-id="n12" data-node-depth="2"><rect x="430" y="324" width="180" height="52" rx="6" ry="6" fill="var(--color-gray-800)" stroke="var(--color-gray-700)" stroke-width="1.5"/><text font-family="'JetBrains Mono', ui-monospace, monospace" fill="var(--color-gray-50)" text-anchor="start" font-size="12" font-weight="400"><tspan x="446" y="347">Calendar manager via</tspan><tspan x="446" y="363">OpenCode</tspan></text></g><g data-node-id="n13" data-node-depth="2"><rect x="426" y="386" width="188" height="52" rx="6" ry="6" fill="var(--color-gray-800)" stroke="var(--color-gray-700)" stroke-width="1.5"/><text font-family="'JetBrains Mono', ui-monospace, monospace" fill="var(--color-gray-50)" text-anchor="start" font-size="12" font-weight="400"><tspan x="442" y="409">Could not modify core</tspan><tspan x="442" y="425">logic</tspan></text></g><g data-node-id="n14" data-node-depth="3"><rect x="686" y="388" width="148" height="48" rx="6" ry="6" fill="var(--color-gray-800)" fill-opacity="0.7" stroke="var(--color-gray-700)" stroke-width="1.5"/><text font-family="'JetBrains Mono', ui-monospace, monospace" fill="var(--color-gray-50)" text-anchor="start" font-size="11" font-weight="400"><tspan x="702" y="409">Architecture felt</tspan><tspan x="702" y="423">alien</tspan></text></g><g data-node-id="n15" data-node-depth="1"><rect x="200" y="479" width="160" height="54" rx="6" ry="6" fill="var(--color-primary-800)" stroke="var(--color-primary-700)" stroke-width="1.5"/><text font-family="'JetBrains Mono', ui-monospace, monospace" fill="var(--color-gray-50)" text-anchor="start" font-size="13" font-weight="600"><tspan x="216" y="503">Why this debt is</tspan><tspan x="216" y="520">harder</tspan></text></g><g data-node-id="n16" data-node-depth="2"><rect x="423" y="448" width="195" height="52" rx="6" ry="6" fill="var(--color-gray-800)" stroke="var(--color-gray-700)" stroke-width="1.5"/><text font-family="'JetBrains Mono', ui-monospace, monospace" fill="var(--color-gray-50)" text-anchor="start" font-size="12" font-weight="400"><tspan x="439" y="471">Must learn code before</tspan><tspan x="439" y="487">fixing</tspan></text></g><g data-node-id="n17" data-node-depth="2"><rect x="456" y="512" width="129" height="52" rx="6" ry="6" fill="var(--color-gray-800)" stroke="var(--color-gray-700)" stroke-width="1.5"/><text font-family="'JetBrains Mono', ui-monospace, monospace" fill="var(--color-gray-50)" text-anchor="start" font-size="12" font-weight="400"><tspan x="472" y="535">Lose creative</tspan><tspan x="472" y="551">ownership</tspan></text></g><g data-node-id="n18" data-node-depth="1"><rect x="192" y="607" width="176" height="54" rx="6" ry="6" fill="var(--color-primary-800)" stroke="var(--color-primary-700)" stroke-width="1.5"/><text font-family="'JetBrains Mono', ui-monospace, monospace" fill="var(--color-gray-50)" text-anchor="start" font-size="13" font-weight="600"><tspan x="208" y="631">What I am thinking</tspan><tspan x="208" y="648">about</tspan></text></g><g data-node-id="n19" data-node-depth="2"><rect x="426" y="576" width="188" height="52" rx="6" ry="6" fill="var(--color-gray-800)" stroke="var(--color-gray-700)" stroke-width="1.5"/><text font-family="'JetBrains Mono', ui-monospace, monospace" fill="var(--color-gray-50)" text-anchor="start" font-size="12" font-weight="400"><tspan x="442" y="599">Guidelines for how to</tspan><tspan x="442" y="615">build</tspan></text></g><g data-node-id="n20" data-node-depth="2"><rect x="430" y="640" width="180" height="52" rx="6" ry="6" fill="var(--color-gray-800)" stroke="var(--color-gray-700)" stroke-width="1.5"/><text font-family="'JetBrains Mono', ui-monospace, monospace" fill="var(--color-gray-50)" text-anchor="start" font-size="12" font-weight="400"><tspan x="446" y="663">Stay in the creative</tspan><tspan x="446" y="679">loop</tspan></text></g></g></svg>