<svg xmlns="http://www.w3.org/2000/svg" viewBox="0 0 950 722" width="950" height="722"><g transform="translate(82.00 0.00)"><path d="M 138,381 C 160,381 170,82 192,82" fill="none" stroke="var(--color-primary-700)" stroke-width="1.5"/><path d="M 368,82 C 394,82 408,50 434,50" fill="none" stroke="var(--color-primary-700)" stroke-width="1.5"/><path d="M 368,82 C 390,82 401,114 423,114" fill="none" stroke="var(--color-primary-700)" stroke-width="1.5"/><path d="M 138,381 C 166,381 180,210 208,210" fill="none" stroke="var(--color-primary-700)" stroke-width="1.5"/><path d="M 352,210 C 380,210 395,178 423,178" fill="none" stroke="var(--color-primary-700)" stroke-width="1.5"/><path d="M 352,210 C 383,210 399,242 430,242" fill="none" stroke="var(--color-primary-700)" stroke-width="1.5"/><path d="M 138,381 C 166,381 180,325 208,325" fill="none" stroke="var(--color-primary-700)" stroke-width="1.5"/><path d="M 352,325 C 380,325 395,298 423,298" fill="none" stroke="var(--color-primary-700)" stroke-width="1.5"/><path d="M 352,325 C 394,325 414,352 456,352" fill="none" stroke="var(--color-primary-700)" stroke-width="1.5"/><path d="M 585,352 C 621,352 640,352 676,352" fill="none" stroke="var(--color-primary-700)" stroke-width="1.5"/><path d="M 138,381 C 155,381 163,414 180,414" fill="none" stroke="var(--color-primary-700)" stroke-width="1.5"/><path d="M 380,414 C 400,414 410,414 430,414" fill="none" stroke="var(--color-primary-700)" stroke-width="1.5"/><path d="M 138,381 C 164,381 178,494 204,494" fill="none" stroke="var(--color-primary-700)" stroke-width="1.5"/><path d="M 356,494 C 387,494 403,470 434,470" fill="none" stroke="var(--color-primary-700)" stroke-width="1.5"/><path d="M 356,494 C 384,494 398,518 426,518" fill="none" stroke="var(--color-primary-700)" stroke-width="1.5"/><path d="M 138,381 C 156,381 166,574 184,574" fill="none" stroke="var(--color-primary-700)" stroke-width="1.5"/><path d="M 376,574 C 398,574 408,574 430,574" fill="none" stroke="var(--color-primary-700)" stroke-width="1.5"/><path d="M 138,381 C 156,381 166,631 184,631" fill="none" stroke="var(--color-primary-700)" stroke-width="1.5"/><path d="M 138,381 C 164,381 178,680 204,680" fill="none" stroke="var(--color-primary-700)" stroke-width="1.5"/><g data-node-id="n1" data-node-depth="0"><rect x="-58" y="353" width="196" height="56" rx="6" ry="6" fill="var(--color-primary-500)" stroke="var(--color-primary-400)" stroke-width="1.5"/><text font-family="'JetBrains Mono', ui-monospace, monospace" fill="var(--color-gray-50)" text-anchor="start" font-size="14" font-weight="700"><tspan x="-42" y="378">Vibe Coding Tooling</tspan><tspan x="-42" y="396">Evolution</tspan></text></g><g data-node-id="n2" data-node-depth="1"><rect x="192" y="55" width="176" height="54" rx="6" ry="6" fill="var(--color-primary-800)" stroke="var(--color-primary-700)" stroke-width="1.5"/><text font-family="'JetBrains Mono', ui-monospace, monospace" fill="var(--color-gray-50)" text-anchor="start" font-size="13" font-weight="600"><tspan x="208" y="79">Cursor changed LLM</tspan><tspan x="208" y="96">context</tspan></text></g><g data-node-id="n3" data-node-depth="2"><rect x="434" y="24" width="173" height="52" rx="6" ry="6" fill="var(--color-gray-800)" stroke="var(--color-gray-700)" stroke-width="1.5"/><text font-family="'JetBrains Mono', ui-monospace, monospace" fill="var(--color-gray-50)" text-anchor="start" font-size="12" font-weight="400"><tspan x="450" y="47">Code as context for</tspan><tspan x="450" y="63">LLM</tspan></text></g><g data-node-id="n4" data-node-depth="2"><rect x="423" y="88" width="195" height="52" rx="6" ry="6" fill="var(--color-gray-800)" stroke="var(--color-gray-700)" stroke-width="1.5"/><text font-family="'JetBrains Mono', ui-monospace, monospace" fill="var(--color-gray-50)" text-anchor="start" font-size="12" font-weight="400"><tspan x="439" y="111">Learned context window</tspan><tspan x="439" y="127">types</tspan></text></g><g data-node-id="n5" data-node-depth="1"><rect x="208" y="183" width="144" height="54" rx="6" ry="6" fill="var(--color-primary-800)" stroke="var(--color-primary-700)" stroke-width="1.5"/><text font-family="'JetBrains Mono', ui-monospace, monospace" fill="var(--color-gray-50)" text-anchor="start" font-size="13" font-weight="600"><tspan x="224" y="207">Taskmaster and</tspan><tspan x="224" y="224">planning</tspan></text></g><g data-node-id="n6" data-node-depth="2"><rect x="423" y="152" width="195" height="52" rx="6" ry="6" fill="var(--color-gray-800)" stroke="var(--color-gray-700)" stroke-width="1.5"/><text font-family="'JetBrains Mono', ui-monospace, monospace" fill="var(--color-gray-50)" text-anchor="start" font-size="12" font-weight="400"><tspan x="439" y="175">Incremental steps over</tspan><tspan x="439" y="191">big prompts</tspan></text></g><g data-node-id="n7" data-node-depth="2"><rect x="430" y="216" width="180" height="52" rx="6" ry="6" fill="var(--color-gray-800)" stroke="var(--color-gray-700)" stroke-width="1.5"/><text font-family="'JetBrains Mono', ui-monospace, monospace" fill="var(--color-gray-50)" text-anchor="start" font-size="12" font-weight="400"><tspan x="446" y="239">Cursor absorbed plan</tspan><tspan x="446" y="255">mode</tspan></text></g><g data-node-id="n8" data-node-depth="1"><rect x="208" y="298" width="144" height="54" rx="6" ry="6" fill="var(--color-primary-800)" stroke="var(--color-primary-700)" stroke-width="1.5"/><text font-family="'JetBrains Mono', ui-monospace, monospace" fill="var(--color-gray-50)" text-anchor="start" font-size="13" font-weight="600"><tspan x="224" y="322">Why I moved to</tspan><tspan x="224" y="339">OpenCode</tspan></text></g><g data-node-id="n9" data-node-depth="2"><rect x="423" y="280" width="195" height="36" rx="6" ry="6" fill="var(--color-gray-800)" stroke="var(--color-gray-700)" stroke-width="1.5"/><text font-family="'JetBrains Mono', ui-monospace, monospace" fill="var(--color-gray-50)" text-anchor="start" font-size="12" font-weight="400"><tspan x="439" y="303">Local agents, no cloud</tspan></text></g><g data-node-id="n10" data-node-depth="2"><rect x="456" y="326" width="129" height="52" rx="6" ry="6" fill="var(--color-gray-800)" stroke="var(--color-gray-700)" stroke-width="1.5"/><text font-family="'JetBrains Mono', ui-monospace, monospace" fill="var(--color-gray-50)" text-anchor="start" font-size="12" font-weight="400"><tspan x="472" y="349">Multi-agent</tspan><tspan x="472" y="365">orchestration</tspan></text></g><g data-node-id="n11" data-node-depth="3"><rect x="676" y="328" width="168" height="48" rx="6" ry="6" fill="var(--color-gray-800)" fill-opacity="0.7" stroke="var(--color-gray-700)" stroke-width="1.5"/><text font-family="'JetBrains Mono', ui-monospace, monospace" fill="var(--color-gray-50)" text-anchor="start" font-size="11" font-weight="400"><tspan x="692" y="349">Different models per</tspan><tspan x="692" y="363">role</tspan></text></g><g data-node-id="n12" data-node-depth="1"><rect x="180" y="396" width="200" height="37" rx="6" ry="6" fill="var(--color-primary-800)" stroke="var(--color-primary-700)" stroke-width="1.5"/><text font-family="'JetBrains Mono', ui-monospace, monospace" fill="var(--color-gray-50)" text-anchor="start" font-size="13" font-weight="600"><tspan x="196" y="419">Tmux made it parallel</tspan></text></g><g data-node-id="n13" data-node-depth="2"><rect x="430" y="388" width="180" height="52" rx="6" ry="6" fill="var(--color-gray-800)" stroke="var(--color-gray-700)" stroke-width="1.5"/><text font-family="'JetBrains Mono', ui-monospace, monospace" fill="var(--color-gray-50)" text-anchor="start" font-size="12" font-weight="400"><tspan x="446" y="411">Multiple sessions in</tspan><tspan x="446" y="427">background</tspan></text></g><g data-node-id="n14" data-node-depth="1"><rect x="204" y="467" width="152" height="54" rx="6" ry="6" fill="var(--color-primary-800)" stroke="var(--color-primary-700)" stroke-width="1.5"/><text font-family="'JetBrains Mono', ui-monospace, monospace" fill="var(--color-gray-50)" text-anchor="start" font-size="13" font-weight="600"><tspan x="220" y="491">Two wins proved</tspan><tspan x="220" y="508">approach</tspan></text></g><g data-node-id="n15" data-node-depth="2"><rect x="434" y="452" width="173" height="36" rx="6" ry="6" fill="var(--color-gray-800)" stroke="var(--color-gray-700)" stroke-width="1.5"/><text font-family="'JetBrains Mono', ui-monospace, monospace" fill="var(--color-gray-50)" text-anchor="start" font-size="12" font-weight="400"><tspan x="450" y="475">Google Calendar CLI</tspan></text></g><g data-node-id="n16" data-node-depth="2"><rect x="426" y="500" width="188" height="36" rx="6" ry="6" fill="var(--color-gray-800)" stroke="var(--color-gray-700)" stroke-width="1.5"/><text font-family="'JetBrains Mono', ui-monospace, monospace" fill="var(--color-gray-50)" text-anchor="start" font-size="12" font-weight="400"><tspan x="442" y="523">Life in Weeks web app</tspan></text></g><g data-node-id="n17" data-node-depth="1"><rect x="184" y="556" width="192" height="37" rx="6" ry="6" fill="var(--color-primary-800)" stroke="var(--color-primary-700)" stroke-width="1.5"/><text font-family="'JetBrains Mono', ui-monospace, monospace" fill="var(--color-gray-50)" text-anchor="start" font-size="13" font-weight="600"><tspan x="200" y="579">Most apps are broken</tspan></text></g><g data-node-id="n18" data-node-depth="2"><rect x="430" y="548" width="180" height="52" rx="6" ry="6" fill="var(--color-gray-800)" stroke="var(--color-gray-700)" stroke-width="1.5"/><text font-family="'JetBrains Mono', ui-monospace, monospace" fill="var(--color-gray-50)" text-anchor="start" font-size="12" font-weight="400"><tspan x="446" y="571">Each failure teaches</tspan><tspan x="446" y="587">better use</tspan></text></g><g data-node-id="n19" data-node-depth="1"><rect x="184" y="612" width="192" height="37" rx="6" ry="6" fill="var(--color-primary-800)" stroke="var(--color-primary-700)" stroke-width="1.5"/><text font-family="'JetBrains Mono', ui-monospace, monospace" fill="var(--color-gray-50)" text-anchor="start" font-size="13" font-weight="600"><tspan x="200" y="636">Cost problem is real</tspan></text></g><g data-node-id="n20" data-node-depth="1"><rect x="204" y="661" width="152" height="37" rx="6" ry="6" fill="var(--color-primary-800)" stroke="var(--color-primary-700)" stroke-width="1.5"/><text font-family="'JetBrains Mono', ui-monospace, monospace" fill="var(--color-gray-50)" text-anchor="start" font-size="13" font-weight="600"><tspan x="220" y="685">What I know now</tspan></text></g></g></svg>