<svg xmlns="http://www.w3.org/2000/svg" viewBox="0 0 936 718" width="936" height="718"><g transform="translate(77.50 2.00)"><path d="M 134,333 C 157,333 169,48 192,48" fill="none" stroke="var(--color-primary-700)" stroke-width="1.5"/><path d="M 368,48 C 396,48 409,48 437,48" fill="none" stroke="var(--color-primary-700)" stroke-width="1.5"/><path d="M 603,48 C 636,48 653,48 686,48" fill="none" stroke="var(--color-primary-700)" stroke-width="1.5"/><path d="M 134,333 C 152,333 162,158 180,158" fill="none" stroke="var(--color-primary-700)" stroke-width="1.5"/><path d="M 380,158 C 398,158 408,102 426,102" fill="none" stroke="var(--color-primary-700)" stroke-width="1.5"/><path d="M 380,158 C 400,158 410,158 430,158" fill="none" stroke="var(--color-primary-700)" stroke-width="1.5"/><path d="M 380,158 C 397,158 406,214 423,214" fill="none" stroke="var(--color-primary-700)" stroke-width="1.5"/><path d="M 134,333 C 156,333 166,326 188,326" fill="none" stroke="var(--color-primary-700)" stroke-width="1.5"/><path d="M 372,326 C 398,326 411,270 437,270" fill="none" stroke="var(--color-primary-700)" stroke-width="1.5"/><path d="M 372,326 C 397,326 409,326 434,326" fill="none" stroke="var(--color-primary-700)" stroke-width="1.5"/><path d="M 372,326 C 406,326 422,382 456,382" fill="none" stroke="var(--color-primary-700)" stroke-width="1.5"/><path d="M 134,333 C 156,333 166,475 188,475" fill="none" stroke="var(--color-primary-700)" stroke-width="1.5"/><path d="M 372,475 C 392,475 403,444 423,444" fill="none" stroke="var(--color-primary-700)" stroke-width="1.5"/><path d="M 618,444 C 651,444 667,444 700,444" fill="none" stroke="var(--color-primary-700)" stroke-width="1.5"/><path d="M 372,475 C 395,475 407,506 430,506" fill="none" stroke="var(--color-primary-700)" stroke-width="1.5"/><path d="M 134,333 C 164,333 178,618 208,618" fill="none" stroke="var(--color-primary-700)" stroke-width="1.5"/><path d="M 352,618 C 380,618 395,562 423,562" fill="none" stroke="var(--color-primary-700)" stroke-width="1.5"/><path d="M 352,618 C 380,618 395,618 423,618" fill="none" stroke="var(--color-primary-700)" stroke-width="1.5"/><path d="M 352,618 C 380,618 395,674 423,674" fill="none" stroke="var(--color-primary-700)" stroke-width="1.5"/><g data-node-id="n1" data-node-depth="0"><rect x="-53" y="305" width="187" height="56" rx="6" ry="6" fill="var(--color-primary-500)" stroke="var(--color-primary-400)" stroke-width="1.5"/><text font-family="'JetBrains Mono', ui-monospace, monospace" fill="var(--color-gray-50)" text-anchor="start" font-size="14" font-weight="700"><tspan x="-37" y="330">The logic layer is</tspan><tspan x="-37" y="348">dissolving</tspan></text></g><g data-node-id="n2" data-node-depth="1"><rect x="192" y="30" width="176" height="37" rx="6" ry="6" fill="var(--color-primary-800)" stroke="var(--color-primary-700)" stroke-width="1.5"/><text font-family="'JetBrains Mono', ui-monospace, monospace" fill="var(--color-gray-50)" text-anchor="start" font-size="13" font-weight="600"><tspan x="208" y="53">AI excels at logic</tspan></text></g><g data-node-id="n3" data-node-depth="2"><rect x="437" y="22" width="166" height="52" rx="6" ry="6" fill="var(--color-gray-800)" stroke="var(--color-gray-700)" stroke-width="1.5"/><text font-family="'JetBrains Mono', ui-monospace, monospace" fill="var(--color-gray-50)" text-anchor="start" font-size="12" font-weight="400"><tspan x="453" y="45">Rules &amp; structured</tspan><tspan x="453" y="61">flows</tspan></text></g><g data-node-id="n4" data-node-depth="3"><rect x="686" y="24" width="148" height="48" rx="6" ry="6" fill="var(--color-gray-800)" fill-opacity="0.7" stroke="var(--color-gray-700)" stroke-width="1.5"/><text font-family="'JetBrains Mono', ui-monospace, monospace" fill="var(--color-gray-50)" text-anchor="start" font-size="11" font-weight="400"><tspan x="702" y="45">Software patterns</tspan><tspan x="702" y="59">first</tspan></text></g><g data-node-id="n5" data-node-depth="1"><rect x="180" y="140" width="200" height="37" rx="6" ry="6" fill="var(--color-primary-800)" stroke="var(--color-primary-700)" stroke-width="1.5"/><text font-family="'JetBrains Mono', ui-monospace, monospace" fill="var(--color-gray-50)" text-anchor="start" font-size="13" font-weight="600"><tspan x="196" y="163">First agentic service</tspan></text></g><g data-node-id="n6" data-node-depth="2"><rect x="426" y="84" width="188" height="36" rx="6" ry="6" fill="var(--color-gray-800)" stroke="var(--color-gray-700)" stroke-width="1.5"/><text font-family="'JetBrains Mono', ui-monospace, monospace" fill="var(--color-gray-50)" text-anchor="start" font-size="12" font-weight="400"><tspan x="442" y="107">One day vs two months</tspan></text></g><g data-node-id="n7" data-node-depth="2"><rect x="430" y="132" width="180" height="52" rx="6" ry="6" fill="var(--color-gray-800)" stroke="var(--color-gray-700)" stroke-width="1.5"/><text font-family="'JetBrains Mono', ui-monospace, monospace" fill="var(--color-gray-50)" text-anchor="start" font-size="12" font-weight="400"><tspan x="446" y="155">Detailed PRDs became</tspan><tspan x="446" y="171">noise</tspan></text></g><g data-node-id="n8" data-node-depth="2"><rect x="423" y="196" width="195" height="36" rx="6" ry="6" fill="var(--color-gray-800)" stroke="var(--color-gray-700)" stroke-width="1.5"/><text font-family="'JetBrains Mono', ui-monospace, monospace" fill="var(--color-gray-50)" text-anchor="start" font-size="12" font-weight="400"><tspan x="439" y="219">TDD became almost free</tspan></text></g><g data-node-id="n9" data-node-depth="1"><rect x="188" y="299" width="184" height="54" rx="6" ry="6" fill="var(--color-primary-800)" stroke="var(--color-primary-700)" stroke-width="1.5"/><text font-family="'JetBrains Mono', ui-monospace, monospace" fill="var(--color-gray-50)" text-anchor="start" font-size="13" font-weight="600"><tspan x="204" y="323">Requirements in the</tspan><tspan x="204" y="340">age of AI</tspan></text></g><g data-node-id="n10" data-node-depth="2"><rect x="437" y="244" width="166" height="52" rx="6" ry="6" fill="var(--color-gray-800)" stroke="var(--color-gray-700)" stroke-width="1.5"/><text font-family="'JetBrains Mono', ui-monospace, monospace" fill="var(--color-gray-50)" text-anchor="start" font-size="12" font-weight="400"><tspan x="453" y="267">Translation layers</tspan><tspan x="453" y="283">existed</tspan></text></g><g data-node-id="n11" data-node-depth="2"><rect x="434" y="308" width="173" height="36" rx="6" ry="6" fill="var(--color-gray-800)" stroke="var(--color-gray-700)" stroke-width="1.5"/><text font-family="'JetBrains Mono', ui-monospace, monospace" fill="var(--color-gray-50)" text-anchor="start" font-size="12" font-weight="400"><tspan x="450" y="331">Less docs, not more</tspan></text></g><g data-node-id="n12" data-node-depth="2"><rect x="456" y="356" width="129" height="52" rx="6" ry="6" fill="var(--color-gray-800)" stroke="var(--color-gray-700)" stroke-width="1.5"/><text font-family="'JetBrains Mono', ui-monospace, monospace" fill="var(--color-gray-50)" text-anchor="start" font-size="12" font-weight="400"><tspan x="472" y="379">PMs should do</tspan><tspan x="472" y="395">discovery</tspan></text></g><g data-node-id="n13" data-node-depth="1"><rect x="188" y="448" width="184" height="54" rx="6" ry="6" fill="var(--color-primary-800)" stroke="var(--color-primary-700)" stroke-width="1.5"/><text font-family="'JetBrains Mono', ui-monospace, monospace" fill="var(--color-gray-50)" text-anchor="start" font-size="13" font-weight="600"><tspan x="204" y="472">Layers that carried</tspan><tspan x="204" y="489">info</tspan></text></g><g data-node-id="n14" data-node-depth="2"><rect x="423" y="426" width="195" height="36" rx="6" ry="6" fill="var(--color-gray-800)" stroke="var(--color-gray-700)" stroke-width="1.5"/><text font-family="'JetBrains Mono', ui-monospace, monospace" fill="var(--color-gray-50)" text-anchor="start" font-size="12" font-weight="400"><tspan x="439" y="449">Middle mgmt as routing</tspan></text></g><g data-node-id="n15" data-node-depth="3"><rect x="700" y="420" width="121" height="48" rx="6" ry="6" fill="var(--color-gray-800)" fill-opacity="0.7" stroke="var(--color-gray-700)" stroke-width="1.5"/><text font-family="'JetBrains Mono', ui-monospace, monospace" fill="var(--color-gray-50)" text-anchor="start" font-size="11" font-weight="400"><tspan x="716" y="441">Meta 50:1</tspan><tspan x="716" y="455">IC-to-manager</tspan></text></g><g data-node-id="n16" data-node-depth="2"><rect x="430" y="480" width="180" height="52" rx="6" ry="6" fill="var(--color-gray-800)" stroke="var(--color-gray-700)" stroke-width="1.5"/><text font-family="'JetBrains Mono', ui-monospace, monospace" fill="var(--color-gray-50)" text-anchor="start" font-size="12" font-weight="400"><tspan x="446" y="503">Dorsey: hierarchy as</tspan><tspan x="446" y="519">protocol</tspan></text></g><g data-node-id="n17" data-node-depth="1"><rect x="208" y="591" width="144" height="54" rx="6" ry="6" fill="var(--color-primary-800)" stroke="var(--color-primary-700)" stroke-width="1.5"/><text font-family="'JetBrains Mono', ui-monospace, monospace" fill="var(--color-gray-50)" text-anchor="start" font-size="13" font-weight="600"><tspan x="224" y="615">The unanswered</tspan><tspan x="224" y="632">question</tspan></text></g><g data-node-id="n18" data-node-depth="2"><rect x="423" y="544" width="195" height="36" rx="6" ry="6" fill="var(--color-gray-800)" stroke="var(--color-gray-700)" stroke-width="1.5"/><text font-family="'JetBrains Mono', ui-monospace, monospace" fill="var(--color-gray-50)" text-anchor="start" font-size="12" font-weight="400"><tspan x="439" y="567">Logic skills now cheap</tspan></text></g><g data-node-id="n19" data-node-depth="2"><rect x="423" y="592" width="195" height="52" rx="6" ry="6" fill="var(--color-gray-800)" stroke="var(--color-gray-700)" stroke-width="1.5"/><text font-family="'JetBrains Mono', ui-monospace, monospace" fill="var(--color-gray-50)" text-anchor="start" font-size="12" font-weight="400"><tspan x="439" y="615">Pivot to creative work</tspan><tspan x="439" y="631">hard</tspan></text></g><g data-node-id="n20" data-node-depth="2"><rect x="423" y="656" width="195" height="36" rx="6" ry="6" fill="var(--color-gray-800)" stroke="var(--color-gray-700)" stroke-width="1.5"/><text font-family="'JetBrains Mono', ui-monospace, monospace" fill="var(--color-gray-50)" text-anchor="start" font-size="12" font-weight="400"><tspan x="439" y="679">Hardest part is people</tspan></text></g></g></svg>