<svg xmlns="http://www.w3.org/2000/svg" viewBox="0 0 702 685" width="702" height="685"><g transform="translate(60.50 9.00)"><path d="M 117,334 C 144,334 157,42 184,42" fill="none" stroke="var(--color-primary-700)" stroke-width="1.5"/><path d="M 376,42 C 395,42 404,42 423,42" fill="none" stroke="var(--color-primary-700)" stroke-width="1.5"/><path d="M 117,334 C 147,334 162,90 192,90" fill="none" stroke="var(--color-primary-700)" stroke-width="1.5"/><path d="M 368,90 C 391,90 403,90 426,90" fill="none" stroke="var(--color-primary-700)" stroke-width="1.5"/><path d="M 117,334 C 145,334 160,178 188,178" fill="none" stroke="var(--color-primary-700)" stroke-width="1.5"/><path d="M 372,178 C 394,178 404,146 426,146" fill="none" stroke="var(--color-primary-700)" stroke-width="1.5"/><path d="M 372,178 C 394,178 404,210 426,210" fill="none" stroke="var(--color-primary-700)" stroke-width="1.5"/><path d="M 117,334 C 155,334 174,274 212,274" fill="none" stroke="var(--color-primary-700)" stroke-width="1.5"/><path d="M 348,274 C 388,274 409,274 449,274" fill="none" stroke="var(--color-primary-700)" stroke-width="1.5"/><path d="M 117,334 C 145,334 160,358 188,358" fill="none" stroke="var(--color-primary-700)" stroke-width="1.5"/><path d="M 372,358 C 395,358 407,330 430,330" fill="none" stroke="var(--color-primary-700)" stroke-width="1.5"/><path d="M 372,358 C 394,358 404,386 426,386" fill="none" stroke="var(--color-primary-700)" stroke-width="1.5"/><path d="M 117,334 C 141,334 152,482 176,482" fill="none" stroke="var(--color-primary-700)" stroke-width="1.5"/><path d="M 384,482 C 402,482 412,450 430,450" fill="none" stroke="var(--color-primary-700)" stroke-width="1.5"/><path d="M 384,482 C 411,482 425,514 452,514" fill="none" stroke="var(--color-primary-700)" stroke-width="1.5"/><path d="M 117,334 C 147,334 162,570 192,570" fill="none" stroke="var(--color-primary-700)" stroke-width="1.5"/><path d="M 368,570 C 390,570 401,570 423,570" fill="none" stroke="var(--color-primary-700)" stroke-width="1.5"/><path d="M 117,334 C 158,334 179,626 220,626" fill="none" stroke="var(--color-primary-700)" stroke-width="1.5"/><path d="M 340,626 C 379,626 398,626 437,626" fill="none" stroke="var(--color-primary-700)" stroke-width="1.5"/><g data-node-id="n1" data-node-depth="0"><rect x="-36" y="315" width="153" height="38" rx="6" ry="6" fill="var(--color-primary-500)" stroke="var(--color-primary-400)" stroke-width="1.5"/><text font-family="'JetBrains Mono', ui-monospace, monospace" fill="var(--color-gray-50)" text-anchor="start" font-size="14" font-weight="700"><tspan x="-20" y="340">My state of AI</tspan></text></g><g data-node-id="n2" data-node-depth="1"><rect x="184" y="15" width="192" height="54" rx="6" ry="6" fill="var(--color-primary-800)" stroke="var(--color-primary-700)" stroke-width="1.5"/><text font-family="'JetBrains Mono', ui-monospace, monospace" fill="var(--color-gray-50)" text-anchor="start" font-size="13" font-weight="600"><tspan x="200" y="39">The wake-up call was</tspan><tspan x="200" y="56">MCP</tspan></text></g><g data-node-id="n3" data-node-depth="2"><rect x="423" y="24" width="195" height="36" rx="6" ry="6" fill="var(--color-gray-800)" stroke="var(--color-gray-700)" stroke-width="1.5"/><text font-family="'JetBrains Mono', ui-monospace, monospace" fill="var(--color-gray-50)" text-anchor="start" font-size="12" font-weight="400"><tspan x="439" y="47">LLM connected to tools</tspan></text></g><g data-node-id="n4" data-node-depth="1"><rect x="192" y="63" width="176" height="54" rx="6" ry="6" fill="var(--color-primary-800)" stroke="var(--color-primary-700)" stroke-width="1.5"/><text font-family="'JetBrains Mono', ui-monospace, monospace" fill="var(--color-gray-50)" text-anchor="start" font-size="13" font-weight="600"><tspan x="208" y="87">The context window</tspan><tspan x="208" y="104">problem</tspan></text></g><g data-node-id="n5" data-node-depth="2"><rect x="426" y="72" width="188" height="36" rx="6" ry="6" fill="var(--color-gray-800)" stroke="var(--color-gray-700)" stroke-width="1.5"/><text font-family="'JetBrains Mono', ui-monospace, monospace" fill="var(--color-gray-50)" text-anchor="start" font-size="12" font-weight="400"><tspan x="442" y="95">Tool calls eat tokens</tspan></text></g><g data-node-id="n6" data-node-depth="1"><rect x="188" y="160" width="184" height="37" rx="6" ry="6" fill="var(--color-primary-800)" stroke="var(--color-primary-700)" stroke-width="1.5"/><text font-family="'JetBrains Mono', ui-monospace, monospace" fill="var(--color-gray-50)" text-anchor="start" font-size="13" font-weight="600"><tspan x="204" y="183">Moving to OpenWebUI</tspan></text></g><g data-node-id="n7" data-node-depth="2"><rect x="426" y="120" width="188" height="52" rx="6" ry="6" fill="var(--color-gray-800)" stroke="var(--color-gray-700)" stroke-width="1.5"/><text font-family="'JetBrains Mono', ui-monospace, monospace" fill="var(--color-gray-50)" text-anchor="start" font-size="12" font-weight="400"><tspan x="442" y="143">System prompts at two</tspan><tspan x="442" y="159">levels</tspan></text></g><g data-node-id="n8" data-node-depth="2"><rect x="426" y="184" width="188" height="52" rx="6" ry="6" fill="var(--color-gray-800)" stroke="var(--color-gray-700)" stroke-width="1.5"/><text font-family="'JetBrains Mono', ui-monospace, monospace" fill="var(--color-gray-50)" text-anchor="start" font-size="12" font-weight="400"><tspan x="442" y="207">Grouped MCP servers &amp;</tspan><tspan x="442" y="223">MCPO</tspan></text></g><g data-node-id="n9" data-node-depth="1"><rect x="212" y="256" width="136" height="37" rx="6" ry="6" fill="var(--color-primary-800)" stroke="var(--color-primary-700)" stroke-width="1.5"/><text font-family="'JetBrains Mono', ui-monospace, monospace" fill="var(--color-gray-50)" text-anchor="start" font-size="13" font-weight="600"><tspan x="228" y="279">CLIs and MCPs</tspan></text></g><g data-node-id="n10" data-node-depth="2"><rect x="449" y="248" width="143" height="52" rx="6" ry="6" fill="var(--color-gray-800)" stroke="var(--color-gray-700)" stroke-width="1.5"/><text font-family="'JetBrains Mono', ui-monospace, monospace" fill="var(--color-gray-50)" text-anchor="start" font-size="12" font-weight="400"><tspan x="465" y="271">CLIs are</tspan><tspan x="465" y="287">token-efficient</tspan></text></g><g data-node-id="n11" data-node-depth="1"><rect x="188" y="331" width="184" height="54" rx="6" ry="6" fill="var(--color-primary-800)" stroke="var(--color-primary-700)" stroke-width="1.5"/><text font-family="'JetBrains Mono', ui-monospace, monospace" fill="var(--color-gray-50)" text-anchor="start" font-size="13" font-weight="600"><tspan x="204" y="355">Private knowledge &amp;</tspan><tspan x="204" y="372">folders</tspan></text></g><g data-node-id="n12" data-node-depth="2"><rect x="430" y="312" width="180" height="36" rx="6" ry="6" fill="var(--color-gray-800)" stroke="var(--color-gray-700)" stroke-width="1.5"/><text font-family="'JetBrains Mono', ui-monospace, monospace" fill="var(--color-gray-50)" text-anchor="start" font-size="12" font-weight="400"><tspan x="446" y="335">Folders per use case</tspan></text></g><g data-node-id="n13" data-node-depth="2"><rect x="426" y="360" width="188" height="52" rx="6" ry="6" fill="var(--color-gray-800)" stroke="var(--color-gray-700)" stroke-width="1.5"/><text font-family="'JetBrains Mono', ui-monospace, monospace" fill="var(--color-gray-50)" text-anchor="start" font-size="12" font-weight="400"><tspan x="442" y="383">Daily folder replaces</tspan><tspan x="442" y="399">chaos</tspan></text></g><g data-node-id="n14" data-node-depth="1"><rect x="176" y="464" width="208" height="37" rx="6" ry="6" fill="var(--color-primary-800)" stroke="var(--color-primary-700)" stroke-width="1.5"/><text font-family="'JetBrains Mono', ui-monospace, monospace" fill="var(--color-gray-50)" text-anchor="start" font-size="13" font-weight="600"><tspan x="192" y="487">The models that matter</tspan></text></g><g data-node-id="n15" data-node-depth="2"><rect x="430" y="424" width="180" height="52" rx="6" ry="6" fill="var(--color-gray-800)" stroke="var(--color-gray-700)" stroke-width="1.5"/><text font-family="'JetBrains Mono', ui-monospace, monospace" fill="var(--color-gray-50)" text-anchor="start" font-size="12" font-weight="400"><tspan x="446" y="447">Claude Opus 4.6 best</tspan><tspan x="446" y="463">agent</tspan></text></g><g data-node-id="n16" data-node-depth="2"><rect x="452" y="488" width="136" height="52" rx="6" ry="6" fill="var(--color-gray-800)" stroke="var(--color-gray-700)" stroke-width="1.5"/><text font-family="'JetBrains Mono', ui-monospace, monospace" fill="var(--color-gray-50)" text-anchor="start" font-size="12" font-weight="400"><tspan x="468" y="511">GPT-5.4 strong</tspan><tspan x="468" y="527">reasoning</tspan></text></g><g data-node-id="n17" data-node-depth="1"><rect x="192" y="552" width="176" height="37" rx="6" ry="6" fill="var(--color-primary-800)" stroke="var(--color-primary-700)" stroke-width="1.5"/><text font-family="'JetBrains Mono', ui-monospace, monospace" fill="var(--color-gray-50)" text-anchor="start" font-size="13" font-weight="600"><tspan x="208" y="575">Context is the key</tspan></text></g><g data-node-id="n18" data-node-depth="2"><rect x="423" y="552" width="195" height="36" rx="6" ry="6" fill="var(--color-gray-800)" stroke="var(--color-gray-700)" stroke-width="1.5"/><text font-family="'JetBrains Mono', ui-monospace, monospace" fill="var(--color-gray-50)" text-anchor="start" font-size="12" font-weight="400"><tspan x="439" y="575">Structured XML prompts</tspan></text></g><g data-node-id="n19" data-node-depth="1"><rect x="220" y="608" width="120" height="37" rx="6" ry="6" fill="var(--color-primary-800)" stroke="var(--color-primary-700)" stroke-width="1.5"/><text font-family="'JetBrains Mono', ui-monospace, monospace" fill="var(--color-gray-50)" text-anchor="start" font-size="13" font-weight="600"><tspan x="236" y="631">What&apos;s next</tspan></text></g><g data-node-id="n20" data-node-depth="2"><rect x="437" y="600" width="166" height="52" rx="6" ry="6" fill="var(--color-gray-800)" stroke="var(--color-gray-700)" stroke-width="1.5"/><text font-family="'JetBrains Mono', ui-monospace, monospace" fill="var(--color-gray-50)" text-anchor="start" font-size="12" font-weight="400"><tspan x="453" y="623">Agents improve own</tspan><tspan x="453" y="639">context</tspan></text></g></g></svg>