<svg xmlns="http://www.w3.org/2000/svg" viewBox="0 0 951 644" width="951" height="644"><g transform="translate(86.00 0.00)"><path d="M 142,322 C 159,322 167,50 184,50" fill="none" stroke="var(--color-primary-700)" stroke-width="1.5"/><path d="M 376,50 C 396,50 406,50 426,50" fill="none" stroke="var(--color-primary-700)" stroke-width="1.5"/><path d="M 142,322 C 170,322 184,142 212,142" fill="none" stroke="var(--color-primary-700)" stroke-width="1.5"/><path d="M 348,142 C 379,142 395,114 426,114" fill="none" stroke="var(--color-primary-700)" stroke-width="1.5"/><path d="M 348,142 C 379,142 395,170 426,170" fill="none" stroke="var(--color-primary-700)" stroke-width="1.5"/><path d="M 142,322 C 170,322 184,299 212,299" fill="none" stroke="var(--color-primary-700)" stroke-width="1.5"/><path d="M 348,299 C 394,299 417,224 463,224" fill="none" stroke="var(--color-primary-700)" stroke-width="1.5"/><path d="M 577,224 C 618,224 638,224 679,224" fill="none" stroke="var(--color-primary-700)" stroke-width="1.5"/><path d="M 348,299 C 396,299 419,284 467,284" fill="none" stroke="var(--color-primary-700)" stroke-width="1.5"/><path d="M 573,284 C 615,284 637,284 679,284" fill="none" stroke="var(--color-primary-700)" stroke-width="1.5"/><path d="M 348,299 C 382,299 400,374 434,374" fill="none" stroke="var(--color-primary-700)" stroke-width="1.5"/><path d="M 607,374 C 640,374 657,344 690,344" fill="none" stroke="var(--color-primary-700)" stroke-width="1.5"/><path d="M 607,374 C 636,374 650,404 679,404" fill="none" stroke="var(--color-primary-700)" stroke-width="1.5"/><path d="M 142,322 C 157,322 165,466 180,466" fill="none" stroke="var(--color-primary-700)" stroke-width="1.5"/><path d="M 380,466 C 400,466 410,466 430,466" fill="none" stroke="var(--color-primary-700)" stroke-width="1.5"/><path d="M 142,322 C 162,322 172,530 192,530" fill="none" stroke="var(--color-primary-700)" stroke-width="1.5"/><path d="M 368,530 C 394,530 408,530 434,530" fill="none" stroke="var(--color-primary-700)" stroke-width="1.5"/><path d="M 142,322 C 156,322 162,594 176,594" fill="none" stroke="var(--color-primary-700)" stroke-width="1.5"/><path d="M 384,594 C 404,594 414,594 434,594" fill="none" stroke="var(--color-primary-700)" stroke-width="1.5"/><g data-node-id="n1" data-node-depth="0"><rect x="-62" y="294" width="204" height="56" rx="6" ry="6" fill="var(--color-primary-500)" stroke="var(--color-primary-400)" stroke-width="1.5"/><text font-family="'JetBrains Mono', ui-monospace, monospace" fill="var(--color-gray-50)" text-anchor="start" font-size="14" font-weight="700"><tspan x="-46" y="319">AI Enablement as Eng</tspan><tspan x="-46" y="337">Problem</tspan></text></g><g data-node-id="n2" data-node-depth="1"><rect x="184" y="32" width="192" height="37" rx="6" ry="6" fill="var(--color-primary-800)" stroke="var(--color-primary-700)" stroke-width="1.5"/><text font-family="'JetBrains Mono', ui-monospace, monospace" fill="var(--color-gray-50)" text-anchor="start" font-size="13" font-weight="600"><tspan x="200" y="55">Pressure to adopt AI</tspan></text></g><g data-node-id="n3" data-node-depth="2"><rect x="426" y="24" width="188" height="52" rx="6" ry="6" fill="var(--color-gray-800)" stroke="var(--color-gray-700)" stroke-width="1.5"/><text font-family="'JetBrains Mono', ui-monospace, monospace" fill="var(--color-gray-50)" text-anchor="start" font-size="12" font-weight="400"><tspan x="442" y="47">Danger of chasing all</tspan><tspan x="442" y="63">paths</tspan></text></g><g data-node-id="n4" data-node-depth="1"><rect x="212" y="124" width="136" height="37" rx="6" ry="6" fill="var(--color-primary-800)" stroke="var(--color-primary-700)" stroke-width="1.5"/><text font-family="'JetBrains Mono', ui-monospace, monospace" fill="var(--color-gray-50)" text-anchor="start" font-size="13" font-weight="600"><tspan x="228" y="147">The structure</tspan></text></g><g data-node-id="n5" data-node-depth="2"><rect x="426" y="88" width="188" height="52" rx="6" ry="6" fill="var(--color-gray-800)" stroke="var(--color-gray-700)" stroke-width="1.5"/><text font-family="'JetBrains Mono', ui-monospace, monospace" fill="var(--color-gray-50)" text-anchor="start" font-size="12" font-weight="400"><tspan x="442" y="111">Steering committee at</tspan><tspan x="442" y="127">top</tspan></text></g><g data-node-id="n6" data-node-depth="2"><rect x="426" y="152" width="188" height="36" rx="6" ry="6" fill="var(--color-gray-800)" stroke="var(--color-gray-700)" stroke-width="1.5"/><text font-family="'JetBrains Mono', ui-monospace, monospace" fill="var(--color-gray-50)" text-anchor="start" font-size="12" font-weight="400"><tspan x="442" y="175">AI champions per team</tspan></text></g><g data-node-id="n7" data-node-depth="1"><rect x="212" y="281" width="136" height="37" rx="6" ry="6" fill="var(--color-primary-800)" stroke="var(--color-primary-700)" stroke-width="1.5"/><text font-family="'JetBrains Mono', ui-monospace, monospace" fill="var(--color-gray-50)" text-anchor="start" font-size="13" font-weight="600"><tspan x="228" y="304">Three pillars</tspan></text></g><g data-node-id="n8" data-node-depth="2"><rect x="463" y="206" width="114" height="36" rx="6" ry="6" fill="var(--color-gray-800)" stroke="var(--color-gray-700)" stroke-width="1.5"/><text font-family="'JetBrains Mono', ui-monospace, monospace" fill="var(--color-gray-50)" text-anchor="start" font-size="12" font-weight="400"><tspan x="479" y="229">Business AI</tspan></text></g><g data-node-id="n9" data-node-depth="3"><rect x="679" y="200" width="162" height="48" rx="6" ry="6" fill="var(--color-gray-800)" fill-opacity="0.7" stroke="var(--color-gray-700)" stroke-width="1.5"/><text font-family="'JetBrains Mono', ui-monospace, monospace" fill="var(--color-gray-50)" text-anchor="start" font-size="11" font-weight="400"><tspan x="695" y="221">Automate repetitive</tspan><tspan x="695" y="235">tasks</tspan></text></g><g data-node-id="n10" data-node-depth="2"><rect x="467" y="266" width="106" height="36" rx="6" ry="6" fill="var(--color-gray-800)" stroke="var(--color-gray-700)" stroke-width="1.5"/><text font-family="'JetBrains Mono', ui-monospace, monospace" fill="var(--color-gray-50)" text-anchor="start" font-size="12" font-weight="400"><tspan x="483" y="289">Product AI</tspan></text></g><g data-node-id="n11" data-node-depth="3"><rect x="679" y="260" width="162" height="48" rx="6" ry="6" fill="var(--color-gray-800)" fill-opacity="0.7" stroke="var(--color-gray-700)" stroke-width="1.5"/><text font-family="'JetBrains Mono', ui-monospace, monospace" fill="var(--color-gray-50)" text-anchor="start" font-size="11" font-weight="400"><tspan x="695" y="281">Features must be AI</tspan><tspan x="695" y="295">native</tspan></text></g><g data-node-id="n12" data-node-depth="2"><rect x="434" y="356" width="173" height="36" rx="6" ry="6" fill="var(--color-gray-800)" stroke="var(--color-gray-700)" stroke-width="1.5"/><text font-family="'JetBrains Mono', ui-monospace, monospace" fill="var(--color-gray-50)" text-anchor="start" font-size="12" font-weight="400"><tspan x="450" y="379">Agentic Development</tspan></text></g><g data-node-id="n13" data-node-depth="3"><rect x="690" y="320" width="141" height="48" rx="6" ry="6" fill="var(--color-gray-800)" fill-opacity="0.7" stroke="var(--color-gray-700)" stroke-width="1.5"/><text font-family="'JetBrains Mono', ui-monospace, monospace" fill="var(--color-gray-50)" text-anchor="start" font-size="11" font-weight="400"><tspan x="706" y="341">Engineers direct</tspan><tspan x="706" y="355">agents</tspan></text></g><g data-node-id="n14" data-node-depth="3"><rect x="679" y="380" width="162" height="48" rx="6" ry="6" fill="var(--color-gray-800)" fill-opacity="0.7" stroke="var(--color-gray-700)" stroke-width="1.5"/><text font-family="'JetBrains Mono', ui-monospace, monospace" fill="var(--color-gray-50)" text-anchor="start" font-size="11" font-weight="400"><tspan x="695" y="401">Rollout in waves by</tspan><tspan x="695" y="415">level</tspan></text></g><g data-node-id="n15" data-node-depth="1"><rect x="180" y="448" width="200" height="37" rx="6" ry="6" fill="var(--color-primary-800)" stroke="var(--color-primary-700)" stroke-width="1.5"/><text font-family="'JetBrains Mono', ui-monospace, monospace" fill="var(--color-gray-50)" text-anchor="start" font-size="13" font-weight="600"><tspan x="196" y="471">The checklist problem</tspan></text></g><g data-node-id="n16" data-node-depth="2"><rect x="430" y="440" width="180" height="52" rx="6" ry="6" fill="var(--color-gray-800)" stroke="var(--color-gray-700)" stroke-width="1.5"/><text font-family="'JetBrains Mono', ui-monospace, monospace" fill="var(--color-gray-50)" text-anchor="start" font-size="12" font-weight="400"><tspan x="446" y="463">Centralized governed</tspan><tspan x="446" y="479">change</tspan></text></g><g data-node-id="n17" data-node-depth="1"><rect x="192" y="503" width="176" height="54" rx="6" ry="6" fill="var(--color-primary-800)" stroke="var(--color-primary-700)" stroke-width="1.5"/><text font-family="'JetBrains Mono', ui-monospace, monospace" fill="var(--color-gray-50)" text-anchor="start" font-size="13" font-weight="600"><tspan x="208" y="527">What industry data</tspan><tspan x="208" y="544">says</tspan></text></g><g data-node-id="n18" data-node-depth="2"><rect x="434" y="504" width="173" height="52" rx="6" ry="6" fill="var(--color-gray-800)" stroke="var(--color-gray-700)" stroke-width="1.5"/><text font-family="'JetBrains Mono', ui-monospace, monospace" fill="var(--color-gray-50)" text-anchor="start" font-size="12" font-weight="400"><tspan x="450" y="527">Skills gaps &amp; pilot</tspan><tspan x="450" y="543">failures</tspan></text></g><g data-node-id="n19" data-node-depth="1"><rect x="176" y="576" width="208" height="37" rx="6" ry="6" fill="var(--color-primary-800)" stroke="var(--color-primary-700)" stroke-width="1.5"/><text font-family="'JetBrains Mono', ui-monospace, monospace" fill="var(--color-gray-50)" text-anchor="start" font-size="13" font-weight="600"><tspan x="192" y="599">Where we are right now</tspan></text></g><g data-node-id="n20" data-node-depth="2"><rect x="434" y="568" width="173" height="52" rx="6" ry="6" fill="var(--color-gray-800)" stroke="var(--color-gray-700)" stroke-width="1.5"/><text font-family="'JetBrains Mono', ui-monospace, monospace" fill="var(--color-gray-50)" text-anchor="start" font-size="12" font-weight="400"><tspan x="450" y="591">Track KPIs, adjust,</tspan><tspan x="450" y="607">expand</tspan></text></g></g></svg>