<svg xmlns="http://www.w3.org/2000/svg" viewBox="0 0 944 634" width="944" height="634"><g transform="translate(69.00 0.00)"><path d="M 125,317 C 150,317 163,50 188,50" fill="none" stroke="var(--color-primary-700)" stroke-width="1.5"/><path d="M 372,50 C 398,50 411,50 437,50" fill="none" stroke="var(--color-primary-700)" stroke-width="1.5"/><path d="M 125,317 C 149,317 160,143 184,143" fill="none" stroke="var(--color-primary-700)" stroke-width="1.5"/><path d="M 376,143 C 398,143 408,112 430,112" fill="none" stroke="var(--color-primary-700)" stroke-width="1.5"/><path d="M 610,112 C 634,112 645,112 669,112" fill="none" stroke="var(--color-primary-700)" stroke-width="1.5"/><path d="M 376,143 C 404,143 417,174 445,174" fill="none" stroke="var(--color-primary-700)" stroke-width="1.5"/><path d="M 125,317 C 153,317 168,269 196,269" fill="none" stroke="var(--color-primary-700)" stroke-width="1.5"/><path d="M 364,269 C 395,269 410,238 441,238" fill="none" stroke="var(--color-primary-700)" stroke-width="1.5"/><path d="M 364,269 C 393,269 408,300 437,300" fill="none" stroke="var(--color-primary-700)" stroke-width="1.5"/><path d="M 603,300 C 638,300 655,300 690,300" fill="none" stroke="var(--color-primary-700)" stroke-width="1.5"/><path d="M 125,317 C 158,317 175,413 208,413" fill="none" stroke="var(--color-primary-700)" stroke-width="1.5"/><path d="M 352,413 C 383,413 399,362 430,362" fill="none" stroke="var(--color-primary-700)" stroke-width="1.5"/><path d="M 352,413 C 383,413 399,417 430,417" fill="none" stroke="var(--color-primary-700)" stroke-width="1.5"/><path d="M 610,417 C 636,417 650,417 676,417" fill="none" stroke="var(--color-primary-700)" stroke-width="1.5"/><path d="M 352,413 C 380,413 395,464 423,464" fill="none" stroke="var(--color-primary-700)" stroke-width="1.5"/><path d="M 125,317 C 145,317 156,520 176,520" fill="none" stroke="var(--color-primary-700)" stroke-width="1.5"/><path d="M 384,520 C 400,520 407,520 423,520" fill="none" stroke="var(--color-primary-700)" stroke-width="1.5"/><path d="M 125,317 C 157,317 172,584 204,584" fill="none" stroke="var(--color-primary-700)" stroke-width="1.5"/><path d="M 356,584 C 387,584 403,584 434,584" fill="none" stroke="var(--color-primary-700)" stroke-width="1.5"/><g data-node-id="n1" data-node-depth="0"><rect x="-45" y="289" width="170" height="56" rx="6" ry="6" fill="var(--color-primary-500)" stroke="var(--color-primary-400)" stroke-width="1.5"/><text font-family="'JetBrains Mono', ui-monospace, monospace" fill="var(--color-gray-50)" text-anchor="start" font-size="14" font-weight="700"><tspan x="-29" y="314">Time Is the Only</tspan><tspan x="-29" y="332">Currency</tspan></text></g><g data-node-id="n2" data-node-depth="1"><rect x="188" y="32" width="184" height="37" rx="6" ry="6" fill="var(--color-primary-800)" stroke="var(--color-primary-700)" stroke-width="1.5"/><text font-family="'JetBrains Mono', ui-monospace, monospace" fill="var(--color-gray-50)" text-anchor="start" font-size="13" font-weight="600"><tspan x="204" y="55">Never sitting still</tspan></text></g><g data-node-id="n3" data-node-depth="2"><rect x="437" y="24" width="166" height="52" rx="6" ry="6" fill="var(--color-gray-800)" stroke="var(--color-gray-700)" stroke-width="1.5"/><text font-family="'JetBrains Mono', ui-monospace, monospace" fill="var(--color-gray-50)" text-anchor="start" font-size="12" font-weight="400"><tspan x="453" y="47">Comfort was eating</tspan><tspan x="453" y="63">time</tspan></text></g><g data-node-id="n4" data-node-depth="1"><rect x="184" y="116" width="192" height="54" rx="6" ry="6" fill="var(--color-primary-800)" stroke="var(--color-primary-700)" stroke-width="1.5"/><text font-family="'JetBrains Mono', ui-monospace, monospace" fill="var(--color-gray-50)" text-anchor="start" font-size="13" font-weight="600"><tspan x="200" y="140">The trade you do not</tspan><tspan x="200" y="157">notice</tspan></text></g><g data-node-id="n5" data-node-depth="2"><rect x="430" y="86" width="180" height="52" rx="6" ry="6" fill="var(--color-gray-800)" stroke="var(--color-gray-700)" stroke-width="1.5"/><text font-family="'JetBrains Mono', ui-monospace, monospace" fill="var(--color-gray-50)" text-anchor="start" font-size="12" font-weight="400"><tspan x="446" y="109">Grew with startup to</tspan><tspan x="446" y="125">140+</tspan></text></g><g data-node-id="n6" data-node-depth="3"><rect x="669" y="88" width="182" height="48" rx="6" ry="6" fill="var(--color-gray-800)" fill-opacity="0.7" stroke="var(--color-gray-700)" stroke-width="1.5"/><text font-family="'JetBrains Mono', ui-monospace, monospace" fill="var(--color-gray-50)" text-anchor="start" font-size="11" font-weight="400"><tspan x="685" y="109">Stopped learning, lost</tspan><tspan x="685" y="123">energy</tspan></text></g><g data-node-id="n7" data-node-depth="2"><rect x="445" y="148" width="151" height="52" rx="6" ry="6" fill="var(--color-gray-800)" stroke="var(--color-gray-700)" stroke-width="1.5"/><text font-family="'JetBrains Mono', ui-monospace, monospace" fill="var(--color-gray-50)" text-anchor="start" font-size="12" font-weight="400"><tspan x="461" y="171">Left vesting and</tspan><tspan x="461" y="187">safety</tspan></text></g><g data-node-id="n8" data-node-depth="1"><rect x="196" y="242" width="168" height="54" rx="6" ry="6" fill="var(--color-primary-800)" stroke="var(--color-primary-700)" stroke-width="1.5"/><text font-family="'JetBrains Mono', ui-monospace, monospace" fill="var(--color-gray-50)" text-anchor="start" font-size="13" font-weight="600"><tspan x="212" y="266">The weight of not</tspan><tspan x="212" y="283">knowing</tspan></text></g><g data-node-id="n9" data-node-depth="2"><rect x="441" y="212" width="158" height="52" rx="6" ry="6" fill="var(--color-gray-800)" stroke="var(--color-gray-700)" stroke-width="1.5"/><text font-family="'JetBrains Mono', ui-monospace, monospace" fill="var(--color-gray-50)" text-anchor="start" font-size="12" font-weight="400"><tspan x="457" y="235">No clarity on the</tspan><tspan x="457" y="251">other side</tspan></text></g><g data-node-id="n10" data-node-depth="2"><rect x="437" y="274" width="166" height="52" rx="6" ry="6" fill="var(--color-gray-800)" stroke="var(--color-gray-700)" stroke-width="1.5"/><text font-family="'JetBrains Mono', ui-monospace, monospace" fill="var(--color-gray-50)" text-anchor="start" font-size="12" font-weight="400"><tspan x="453" y="297">Repeated uncertain</tspan><tspan x="453" y="313">bets</tspan></text></g><g data-node-id="n11" data-node-depth="3"><rect x="690" y="276" width="141" height="48" rx="6" ry="6" fill="var(--color-gray-800)" fill-opacity="0.7" stroke="var(--color-gray-700)" stroke-width="1.5"/><text font-family="'JetBrains Mono', ui-monospace, monospace" fill="var(--color-gray-50)" text-anchor="start" font-size="11" font-weight="400"><tspan x="706" y="297">Stubbornness not</tspan><tspan x="706" y="311">wisdom</tspan></text></g><g data-node-id="n12" data-node-depth="1"><rect x="208" y="395" width="144" height="37" rx="6" ry="6" fill="var(--color-primary-800)" stroke="var(--color-primary-700)" stroke-width="1.5"/><text font-family="'JetBrains Mono', ui-monospace, monospace" fill="var(--color-gray-50)" text-anchor="start" font-size="13" font-weight="600"><tspan x="224" y="418">When it hit me</tspan></text></g><g data-node-id="n13" data-node-depth="2"><rect x="430" y="336" width="180" height="52" rx="6" ry="6" fill="var(--color-gray-800)" stroke="var(--color-gray-700)" stroke-width="1.5"/><text font-family="'JetBrains Mono', ui-monospace, monospace" fill="var(--color-gray-50)" text-anchor="start" font-size="12" font-weight="400"><tspan x="446" y="359">Best job, worst time</tspan><tspan x="446" y="375">zone</tspan></text></g><g data-node-id="n14" data-node-depth="2"><rect x="430" y="391" width="180" height="52" rx="6" ry="6" fill="var(--color-gray-800)" stroke="var(--color-gray-700)" stroke-width="1.5"/><text font-family="'JetBrains Mono', ui-monospace, monospace" fill="var(--color-gray-50)" text-anchor="start" font-size="12" font-weight="400"><tspan x="446" y="414">Second child changed</tspan><tspan x="446" y="430">everything</tspan></text></g><g data-node-id="n15" data-node-depth="3"><rect x="676" y="400" width="168" height="34" rx="6" ry="6" fill="var(--color-gray-800)" fill-opacity="0.7" stroke="var(--color-gray-700)" stroke-width="1.5"/><text font-family="'JetBrains Mono', ui-monospace, monospace" fill="var(--color-gray-50)" text-anchor="start" font-size="11" font-weight="400"><tspan x="692" y="421">Left best-paying job</tspan></text></g><g data-node-id="n16" data-node-depth="2"><rect x="423" y="446" width="195" height="36" rx="6" ry="6" fill="var(--color-gray-800)" stroke="var(--color-gray-700)" stroke-width="1.5"/><text font-family="'JetBrains Mono', ui-monospace, monospace" fill="var(--color-gray-50)" text-anchor="start" font-size="12" font-weight="400"><tspan x="439" y="469">Found role at Powerdot</tspan></text></g><g data-node-id="n17" data-node-depth="1"><rect x="176" y="502" width="208" height="37" rx="6" ry="6" fill="var(--color-primary-800)" stroke="var(--color-primary-700)" stroke-width="1.5"/><text font-family="'JetBrains Mono', ui-monospace, monospace" fill="var(--color-gray-50)" text-anchor="start" font-size="13" font-weight="600"><tspan x="192" y="525">Buy back your own time</tspan></text></g><g data-node-id="n18" data-node-depth="2"><rect x="423" y="494" width="195" height="52" rx="6" ry="6" fill="var(--color-gray-800)" stroke="var(--color-gray-700)" stroke-width="1.5"/><text font-family="'JetBrains Mono', ui-monospace, monospace" fill="var(--color-gray-50)" text-anchor="start" font-size="12" font-weight="400"><tspan x="439" y="517">Investing buys others&apos;</tspan><tspan x="439" y="533">time</tspan></text></g><g data-node-id="n19" data-node-depth="1"><rect x="204" y="566" width="152" height="37" rx="6" ry="6" fill="var(--color-primary-800)" stroke="var(--color-primary-700)" stroke-width="1.5"/><text font-family="'JetBrains Mono', ui-monospace, monospace" fill="var(--color-gray-50)" text-anchor="start" font-size="13" font-weight="600"><tspan x="220" y="589">What I know now</tspan></text></g><g data-node-id="n20" data-node-depth="2"><rect x="434" y="558" width="173" height="52" rx="6" ry="6" fill="var(--color-gray-800)" stroke="var(--color-gray-700)" stroke-width="1.5"/><text font-family="'JetBrains Mono', ui-monospace, monospace" fill="var(--color-gray-50)" text-anchor="start" font-size="12" font-weight="400"><tspan x="450" y="581">People shaped every</tspan><tspan x="450" y="597">decision</tspan></text></g></g></svg>