<svg xmlns="http://www.w3.org/2000/svg" viewBox="0 0 737 725" width="737" height="725"><g transform="translate(95.00 0.00)"><path d="M 151,374 C 167,374 176,66 192,66" fill="none" stroke="var(--color-primary-700)" stroke-width="1.5"/><path d="M 368,66 C 390,66 401,42 423,42" fill="none" stroke="var(--color-primary-700)" stroke-width="1.5"/><path d="M 368,66 C 390,66 401,90 423,90" fill="none" stroke="var(--color-primary-700)" stroke-width="1.5"/><path d="M 151,374 C 166,374 173,178 188,178" fill="none" stroke="var(--color-primary-700)" stroke-width="1.5"/><path d="M 372,178 C 394,178 404,146 426,146" fill="none" stroke="var(--color-primary-700)" stroke-width="1.5"/><path d="M 372,178 C 400,178 413,210 441,210" fill="none" stroke="var(--color-primary-700)" stroke-width="1.5"/><path d="M 151,374 C 177,374 190,306 216,306" fill="none" stroke="var(--color-primary-700)" stroke-width="1.5"/><path d="M 344,306 C 381,306 400,274 437,274" fill="none" stroke="var(--color-primary-700)" stroke-width="1.5"/><path d="M 344,306 C 381,306 400,338 437,338" fill="none" stroke="var(--color-primary-700)" stroke-width="1.5"/><path d="M 151,374 C 164,374 171,422 184,422" fill="none" stroke="var(--color-primary-700)" stroke-width="1.5"/><path d="M 376,422 C 395,422 404,394 423,394" fill="none" stroke="var(--color-primary-700)" stroke-width="1.5"/><path d="M 376,422 C 402,422 415,450 441,450" fill="none" stroke="var(--color-primary-700)" stroke-width="1.5"/><path d="M 151,374 C 172,374 183,514 204,514" fill="none" stroke="var(--color-primary-700)" stroke-width="1.5"/><path d="M 356,514 C 384,514 398,514 426,514" fill="none" stroke="var(--color-primary-700)" stroke-width="1.5"/><path d="M 151,374 C 163,374 168,578 180,578" fill="none" stroke="var(--color-primary-700)" stroke-width="1.5"/><path d="M 380,578 C 402,578 412,578 434,578" fill="none" stroke="var(--color-primary-700)" stroke-width="1.5"/><path d="M 151,374 C 167,374 176,634 192,634" fill="none" stroke="var(--color-primary-700)" stroke-width="1.5"/><path d="M 368,634 C 393,634 405,634 430,634" fill="none" stroke="var(--color-primary-700)" stroke-width="1.5"/><path d="M 151,374 C 177,374 190,683 216,683" fill="none" stroke="var(--color-primary-700)" stroke-width="1.5"/><g data-node-id="n1" data-node-depth="0"><rect x="-71" y="355" width="222" height="38" rx="6" ry="6" fill="var(--color-primary-500)" stroke="var(--color-primary-400)" stroke-width="1.5"/><text font-family="'JetBrains Mono', ui-monospace, monospace" fill="var(--color-gray-50)" text-anchor="start" font-size="14" font-weight="700"><tspan x="-55" y="380">Time Management System</tspan></text></g><g data-node-id="n2" data-node-depth="1"><rect x="192" y="48" width="176" height="37" rx="6" ry="6" fill="var(--color-primary-800)" stroke="var(--color-primary-700)" stroke-width="1.5"/><text font-family="'JetBrains Mono', ui-monospace, monospace" fill="var(--color-gray-50)" text-anchor="start" font-size="13" font-weight="600"><tspan x="208" y="71">Two types of tasks</tspan></text></g><g data-node-id="n3" data-node-depth="2"><rect x="423" y="24" width="195" height="36" rx="6" ry="6" fill="var(--color-gray-800)" stroke="var(--color-gray-700)" stroke-width="1.5"/><text font-family="'JetBrains Mono', ui-monospace, monospace" fill="var(--color-gray-50)" text-anchor="start" font-size="12" font-weight="400"><tspan x="439" y="47">NOISE: present-focused</tspan></text></g><g data-node-id="n4" data-node-depth="2"><rect x="423" y="72" width="195" height="36" rx="6" ry="6" fill="var(--color-gray-800)" stroke="var(--color-gray-700)" stroke-width="1.5"/><text font-family="'JetBrains Mono', ui-monospace, monospace" fill="var(--color-gray-50)" text-anchor="start" font-size="12" font-weight="400"><tspan x="439" y="95">FOCUS: future-invested</tspan></text></g><g data-node-id="n5" data-node-depth="1"><rect x="188" y="160" width="184" height="37" rx="6" ry="6" fill="var(--color-primary-800)" stroke="var(--color-primary-700)" stroke-width="1.5"/><text font-family="'JetBrains Mono', ui-monospace, monospace" fill="var(--color-gray-50)" text-anchor="start" font-size="13" font-weight="600"><tspan x="204" y="183">One source of truth</tspan></text></g><g data-node-id="n6" data-node-depth="2"><rect x="426" y="120" width="188" height="52" rx="6" ry="6" fill="var(--color-gray-800)" stroke="var(--color-gray-700)" stroke-width="1.5"/><text font-family="'JetBrains Mono', ui-monospace, monospace" fill="var(--color-gray-50)" text-anchor="start" font-size="12" font-weight="400"><tspan x="442" y="143">All life areas in one</tspan><tspan x="442" y="159">tool</tspan></text></g><g data-node-id="n7" data-node-depth="2"><rect x="441" y="184" width="158" height="52" rx="6" ry="6" fill="var(--color-gray-800)" stroke="var(--color-gray-700)" stroke-width="1.5"/><text font-family="'JetBrains Mono', ui-monospace, monospace" fill="var(--color-gray-50)" text-anchor="start" font-size="12" font-weight="400"><tspan x="457" y="207">Weighted priority</tspan><tspan x="457" y="223">matrix</tspan></text></g><g data-node-id="n8" data-node-depth="1"><rect x="216" y="279" width="128" height="54" rx="6" ry="6" fill="var(--color-primary-800)" stroke="var(--color-primary-700)" stroke-width="1.5"/><text font-family="'JetBrains Mono', ui-monospace, monospace" fill="var(--color-gray-50)" text-anchor="start" font-size="13" font-weight="600"><tspan x="232" y="303">Due dates on</tspan><tspan x="232" y="320">everything</tspan></text></g><g data-node-id="n9" data-node-depth="2"><rect x="437" y="248" width="166" height="52" rx="6" ry="6" fill="var(--color-gray-800)" stroke="var(--color-gray-700)" stroke-width="1.5"/><text font-family="'JetBrains Mono', ui-monospace, monospace" fill="var(--color-gray-50)" text-anchor="start" font-size="12" font-weight="400"><tspan x="453" y="271">Hard deadlines for</tspan><tspan x="453" y="287">high</tspan></text></g><g data-node-id="n10" data-node-depth="2"><rect x="437" y="312" width="166" height="52" rx="6" ry="6" fill="var(--color-gray-800)" stroke="var(--color-gray-700)" stroke-width="1.5"/><text font-family="'JetBrains Mono', ui-monospace, monospace" fill="var(--color-gray-50)" text-anchor="start" font-size="12" font-weight="400"><tspan x="453" y="335">Soft deadlines for</tspan><tspan x="453" y="351">low/med</tspan></text></g><g data-node-id="n11" data-node-depth="1"><rect x="184" y="404" width="192" height="37" rx="6" ry="6" fill="var(--color-primary-800)" stroke="var(--color-primary-700)" stroke-width="1.5"/><text font-family="'JetBrains Mono', ui-monospace, monospace" fill="var(--color-gray-50)" text-anchor="start" font-size="13" font-weight="600"><tspan x="200" y="427">The unified calendar</tspan></text></g><g data-node-id="n12" data-node-depth="2"><rect x="423" y="376" width="195" height="36" rx="6" ry="6" fill="var(--color-gray-800)" stroke="var(--color-gray-700)" stroke-width="1.5"/><text font-family="'JetBrains Mono', ui-monospace, monospace" fill="var(--color-gray-50)" text-anchor="start" font-size="12" font-weight="400"><tspan x="439" y="399">Single view all events</tspan></text></g><g data-node-id="n13" data-node-depth="2"><rect x="441" y="424" width="158" height="52" rx="6" ry="6" fill="var(--color-gray-800)" stroke="var(--color-gray-700)" stroke-width="1.5"/><text font-family="'JetBrains Mono', ui-monospace, monospace" fill="var(--color-gray-50)" text-anchor="start" font-size="12" font-weight="400"><tspan x="457" y="447">Auto-blocks other</tspan><tspan x="457" y="463">calendars</tspan></text></g><g data-node-id="n14" data-node-depth="1"><rect x="204" y="487" width="152" height="54" rx="6" ry="6" fill="var(--color-primary-800)" stroke="var(--color-primary-700)" stroke-width="1.5"/><text font-family="'JetBrains Mono', ui-monospace, monospace" fill="var(--color-gray-50)" text-anchor="start" font-size="13" font-weight="600"><tspan x="220" y="511">Buffers prevent</tspan><tspan x="220" y="528">burnout</tspan></text></g><g data-node-id="n15" data-node-depth="2"><rect x="426" y="488" width="188" height="52" rx="6" ry="6" fill="var(--color-gray-800)" stroke="var(--color-gray-700)" stroke-width="1.5"/><text font-family="'JetBrains Mono', ui-monospace, monospace" fill="var(--color-gray-50)" text-anchor="start" font-size="12" font-weight="400"><tspan x="442" y="511">Pomodoro-based buffer</tspan><tspan x="442" y="527">time</tspan></text></g><g data-node-id="n16" data-node-depth="1"><rect x="180" y="560" width="200" height="37" rx="6" ry="6" fill="var(--color-primary-800)" stroke="var(--color-primary-700)" stroke-width="1.5"/><text font-family="'JetBrains Mono', ui-monospace, monospace" fill="var(--color-gray-50)" text-anchor="start" font-size="13" font-weight="600"><tspan x="196" y="583">Tasks on the calendar</tspan></text></g><g data-node-id="n17" data-node-depth="2"><rect x="434" y="552" width="173" height="52" rx="6" ry="6" fill="var(--color-gray-800)" stroke="var(--color-gray-700)" stroke-width="1.5"/><text font-family="'JetBrains Mono', ui-monospace, monospace" fill="var(--color-gray-50)" text-anchor="start" font-size="12" font-weight="400"><tspan x="450" y="575">Auto-place tasks in</tspan><tspan x="450" y="591">slots</tspan></text></g><g data-node-id="n18" data-node-depth="1"><rect x="192" y="607" width="176" height="54" rx="6" ry="6" fill="var(--color-primary-800)" stroke="var(--color-primary-700)" stroke-width="1.5"/><text font-family="'JetBrains Mono', ui-monospace, monospace" fill="var(--color-gray-50)" text-anchor="start" font-size="13" font-weight="600"><tspan x="208" y="631">AI companion (next</tspan><tspan x="208" y="648">step)</tspan></text></g><g data-node-id="n19" data-node-depth="2"><rect x="430" y="616" width="180" height="36" rx="6" ry="6" fill="var(--color-gray-800)" stroke="var(--color-gray-700)" stroke-width="1.5"/><text font-family="'JetBrains Mono', ui-monospace, monospace" fill="var(--color-gray-50)" text-anchor="start" font-size="12" font-weight="400"><tspan x="446" y="639">Context-aware nudges</tspan></text></g><g data-node-id="n20" data-node-depth="1"><rect x="216" y="664" width="128" height="37" rx="6" ry="6" fill="var(--color-primary-800)" stroke="var(--color-primary-700)" stroke-width="1.5"/><text font-family="'JetBrains Mono', ui-monospace, monospace" fill="var(--color-gray-50)" text-anchor="start" font-size="13" font-weight="600"><tspan x="232" y="688">Start simple</tspan></text></g></g></svg>